<?xml version="1.0" encoding="UTF-8"?><svg id="Capa_1" xmlns="http://www.w3.org/2000/svg" width="141.2" height="82" viewBox="0 0 141.2 82"><path d="m30.3,6.5c-2.4.8-23.3,7.9-28.4,26.9-.8,3-3.9,14.4,3,23.3,7.6,9.8,23,11,33.8,6.6,14.6-5.9,18.3-21.1,19.1-24.5,2.4-11.6,0-29.8-14-36.2C34.2-1.8,22.4,1.1,15.2,7,1.3,18.4.4,44.7,15.8,57.8c10.6,9.1,27.3,10.3,41.5,3l11.8,7s-15.4-26.2,3-65.6c1-2.2-17.1,35.9,0,65.7l.5-53.1c.5-2.8,3-1.8,4-.2,2,4.5.5,33.1-6.6,49.5,4.2.2,9.5.5,13.7.7,8.3-1.6,10.5-5.7,9.4-11.3-1-3.6-1.9-7.8-9.6-7.9-3.6.8-6.9,4.1-7.7,7.6-1.2,5.4,2.4,7.8,3.7,8.9,4.4,3.9,11.1,2.9,12.5,2.8,2.8,0,3-.3,7.4,0,2.7.2,11.4.2,11.6-9.2.5-4.2-1.7-8.6-6.4-9.4s-8,1.8-9.4,6.7c-1.2,4.1,2,8,3.8,9.3,5.3,3.9,9.5-.9,10.4-.9l1.3,14.3s.5,13.1-11.4-.3c-13.3-15.1,1.3-11.4,13.4-2.8l.4-6.7s3.1-7.2,6.5.2l-.4,6.6s1.2,3,3.2-2.1c0,0,14.9-26.6-.5-62.2,0,0,19,33.7,1.4,65.2,0,0,9.1-1.9,11,.7s6.6.4,6.6.4" fill="#fff" stroke="#1d1d1b" stroke-miterlimit="10"/></svg>