<?xml version="1.0" encoding="UTF-8"?><svg id="Capa_1" xmlns="http://www.w3.org/2000/svg" width="295.5" height="396.8" viewBox="0 0 295.5 396.8"><path d="m295.1,396.7c-7-20.1-19.5-46.5-42.2-71.7-9.5-10.6-27.9-30.7-58.5-44.8-16.6-7.7-48.4-22.3-80.7-11.1-13.2,4.6-32.7,15.6-31.6,26.9,1.1,11.8,24.4,18.2,33,20.6,2.6.7,60.8,14.5,98.3-20.6,28.5-26.6,16.6-51.9-14.4-66.1-17-7.7-34.6-7.5-52.7-7.3-28.1.4-33.6,7.1-54.8,4.7-23.9-2.6-51.1-15-51.7-25.8-.8-15.5,32.4-31.2,81.2-31,81,.2,139.6-42.7-.6-43.1-140.2-.4-19.1,32,8.8,23.1,27.8-8.8,37.8-40.3,15.5-65.3s-79.5-49-79.5-49c-3.5,2.9-5.5,6.8-1.3,8.9,1.2.6,7.6,4.5,7.1,3.2-.8-2.1-.8-3.8-.9-5.3,0-1,1.1-1.7,2.1-1.5,1.7.3,9.3,2.3,7.8,1.5l-4.8-4.2c-1.3-.9-3.1-2.8-3.1-4.2,0-1.1,12.6-.4,6.7-2.4-18.2-6.3-15-6.1-11-11.1.7-.8.2-1.5-1.2-2.7l-10-8.2c-3.8-3.1-9.3-3.3-13.2-.3-13.4,10.3-14.4,27.1-14.4,30.9,0,.5.2.9.6,1.2,10.4,7.4,23.1,9.3,23.5,9.4,0,0,0,0,0,0-1.1-8.5,6.5-25.2,8-19.1,1.4,5.6-3.2,6.4-4.1,6.6,0,0-.2,0-.3,0C19.1,36.5,4.2,10.3.6,2.6.2,1.6.9.5,2,.5c35.1.6,51.5,25.6,51.5,25.6" fill="#fff" stroke="#1d1d1b" stroke-miterlimit="10"/></svg>