<?xml version="1.0" encoding="UTF-8"?><svg id="Capa_1" xmlns="http://www.w3.org/2000/svg" width="491.66" height="318" viewBox="0 0 491.66 318"><path d="m0,.8c0,1.9,6.1,18.8,10.1,27.9,17.8,40.5,40.6,66.1,94.4,105.8,25.3,18.7,43.6,32.8,43.1,33.3-.6.5-24-12.3-33.3-18.3-4.4-2.9-9.9-7-12.2-9-2.2-2-4.7-3.5-5.5-3.3-4.1.9,8.6,16.1,23,27.4l8.3,6.7-.5,4.1c-.5,3.5-.2,4.7,2,7.3,1.5,1.8,4.2,3.7,6,4.3,2.6.8,3.4,1.6,3.4,3.6,0,3.4,3.5,7,8.9,9,2.8,1.1,4.3,2.3,4.2,3.3-.4,4.4,2.6,8.1,6.6,8.1,2.1,0,2.5.5,2.5,2.7,0,1.6.4,3.3.8,3.9,1.1,1.6,4.8,3.4,7.2,3.4,1.7,0,1.9.4,1.4,2.5-.9,3.6,1.9,7.2,6.6,8.6,3.2,1,3.9,1.6,3.5,3-.7,2.2,3.5,6.9,6.2,6.9,1.3,0,2.2,1.1,2.8,3.2.8,2.7,1.6,3.4,4.2,3.6,5,.5,6.7-2.9,6.1-12.7-.4-6.9-1.1-9.2-5-17.3-4.8-10-10.2-17.7-18.9-27.3l-5.4-6,5.4,4.5c4.9,4.1,12.5,12.6,23.6,26.7,4.6,5.9,9.2,9.3,12.4,9.3,1.6,0,2.6-1,3.8-3.8,2.2-5.4,4.2-7.2,7.9-7.2,2.3,0,3.8.7,4.8,2.2,2.5,3.5,2.1,5-.9,3.6-3.9-1.8-5.5.3-5.5,7.3s1.5,8.4,4.8,4.1l2.5-3.2,2.3,2.5c3.5,3.8,9.6,3.7,22.9-.5,14.6-4.6,20.1-5.8,46.7-10,22-3.5,27.4-4.7,41.3-9.4,21.6-7.3,20.4-7,17.5-5.2-3.8,2.3-19.4,8.2-29.5,11.1-4.9,1.4-19.8,4.8-33,7.5-25.2,5.2-32.3,7.4-46.3,14.3-10.9,5.5-19.1,12-22,17.7-1.9,3.7-2.2,5.8-2,11.9l.2,7.4-4.5,4.1c-4.4,4-13.9,8.5-13.9,6.6,0-1.4-5.5-4-8.2-4-1.3,0-3.3.7-4.5,1.5-2.1,1.5-2.2,1.3-4.3-4.2-2-5.3-2.6-12.2-1.8-19.2.3-2.3-.4-2.6-8.9-5.1-10.9-3.1-15.3-5.9-23.5-14.6-7.4-7.8-10.5-8.4-10.1-2,.2,2.1,1.4,5.9,2.8,8.4q2.5,4.5.5,5.9c-2.9,2.1-2.5,4.8,1.6,9.2,3.4,3.8,3.5,4.1,1.9,6.4-1.5,2.3-1.5,2.9-.1,6.2,1.2,2.9,2.6,4.1,6.6,5.8,4.7,2,4.9,2.2,3.3,3.9-2.8,3.1-2.1,7.7,1.7,11.1,3.1,2.7,3.7,2.9,9.2,2.4l5.8-.5v4c0,3,.7,4.6,2.9,6.9,3.4,3.3,5.7,3.6,12.1,1.3l4.5-1.6,4.6,4.6c3.4,3.4,5.4,4.6,7.5,4.6,4,0,7.4-2.6,7.4-5.5v-2.4l4.3,2.4c5.9,3.4,10.1,3.3,12.8-.5,2-2.7,2.6-2.9,6.5-2.3,5.9.8,9.3-.3,10.4-3.2.6-1.7,1.7-2.5,3.3-2.5,3.1,0,9.1-4,9.5-6.4.5-2.3-1.4-3.6-5.4-3.6-9.3,0-24.2-7.8-29-14.9-2.5-3.9-2.5-4-1-9.3.8-2.9,1.8-6.6,2.1-8.1.5-2.6.7-2.7,2.8-1.2,3.3,2.3,6.3,1.8,9-1.4,2.2-2.6,2.6-2.8,4-1.4,2,2,5.3.9,7-2.3,1.2-2.3,1.5-2.4,2.6-1,2,2.4,4.7,1.9,7-1,1.7-2.2,2.4-2.4,3.5-1.5,2.4,2,7,1,7.4-1.6.4-2.5,1.2-2.9,2.9-1.2.6.6,2.6.9,4.4.7,2.6-.2,3.5-.8,3.7-2.5.3-2,.7-2.1,5.4-1.6,4.4.5,5.3.3,6.7-1.6,1.5-1.9,2.1-2,6.6-1.2,2.7.5,6.4.7,8.2.4,3.4-.6,7.3-4.3,7.3-6.9,0-.8,1-1.4,2.3-1.4,2.8,0,8.7-3.6,8.7-5.3,0-.7-.5-1.8-1.1-2.4-.8-.8.4-1.5,4.3-2.7,12.2-3.5,33-15.4,34.3-19.6.3-1,4.5-3.8,9.8-6.5,50.1-25.6,90.8-73.8,109.2-129.3,1.5-4.6,2.4-8.6,2.1-8.9-.8-.8-.6-1.3-4.9,11.7-13.1,39.5-41.1,78.3-75.7,105.2-14.5,11.3-38.1,24.8-43.2,24.8-1.3,0-11.5,3.1-22.8,6.9-18.5,6.3-22.5,7.3-41,10.1-25.7,3.9-35.5,5.9-50,10.4-13.8,4.3-17.2,4.5-20.5,1.2-2-2-2.4-3.4-2.4-7.4.2-6.4-1.3-9-5.5-9.8-5.2-.9-7.3.2-10.3,5.9-4.4,8.1-5.5,7.5-20.3-10.8-10.5-13.1-18.3-20.7-28.6-28.2-3.6-2.6-9.1-6.9-12.2-9.6-7.8-6.6-32.3-25.5-47.7-36.7-30.2-22-50.6-39.9-65-57.2C25.8,58.1,12.9,34.9,5.4,11.9,3.2,5.4,1.2.1.8,0,.3,0,0,.4,0,.8Zm101.5,141.2c3.4,3.8,16.2,11.9,35.7,22.5,18.1,9.9,20.6,11.6,29.2,19.9,5.2,5,12.1,12.4,15.4,16.4,10.4,12.7,18.4,31.9,16.8,40.6-1.4,7.2-7.2,9.1-7,2.2.1-3.3-.1-3.7-1.8-3.2-4.9,1.2-9-3.2-6.8-7.4,1-1.9.8-2-3-2-2.7,0-4.7-.7-6.1-2.1-2-2-2.1-3-.8-7.9.3-1.1-.7-1.6-3.8-1.8-5-.4-7.9-3.3-6.3-6.3,1.7-3,1.2-3.9-1.8-3.3-4,.8-8.6-3-7.9-6.6.5-2.5.1-2.9-4.9-4.9-8-3.3-11.4-9.1-5.4-9.1,1.7,0,3-.5,3-1q0-1.1-5.1-1.4c-7.4-.5-14.8-7.4-12.2-11.3,1.2-2,1.3-2,6-.1,1.8.6,3.5.9,3.9.5,1.2-1.2-1.7-3.6-5.3-4.3-6.3-1.2-24.4-16.9-34.2-29.7-1.8-2.3.2-2.2,2.4.3Zm263.1,66.6c-4.5,3.9-21.5,12.5-29.3,14.7-2.9.9-6.8,1.3-9.2,1-3.3-.5-4.1-.3-4.1,1,0,1.1,1.2,1.7,4.3,1.9,3.4.2,4.2.7,4.2,2.3,0,1.5-1.1,2.4-4.4,3.4-4,1.3-4.6,1.2-8.2-.9-4.2-2.3-6.9-2.1-6.9.5,0,.9,1.6,1.9,4.5,2.7,4.6,1.2,5.6,2.7,3.1,4.7-3.5,2.9-16.8,1.9-19.7-1.5-.6-.8-1.5-1.4-2-1.4-1.5,0-1,2.2.8,3.5,1,.8,1.4,1.9.9,3-.5,1.4-1.4,1.6-4.2,1.2-2-.4-4.4-1.3-5.4-2.2-2.7-2.5-4.1-1.9-2.9,1.2,2.2,5.9-1.9,7.1-7.5,2.2l-3.5-3,.2,4.3c.2,3.8-.1,4.3-2.1,4.6-1.6.3-2.7-.5-4-2.7-2-3.6-3.2-4-3.2-1,0,5.5-5.4,8.3-6.6,3.4-.9-3.5-1.9-3.1-4.1,1.2-2.2,4.7-5.6,5.3-6.1,1-.4-3-2.2-3.8-2.2-.8,0,2.8-3.9,7.1-6.4,7.1-1.2,0-3.2-.7-4.4-1.6-3-2.1-3.8-1.3-4.7,4.2-.8,5.8-1.4,7.4-2.7,7.4-1.4,0-.1-8.6,2-12.9,3-6.4,16.4-15.1,33.9-22,6.5-2.6,16-5.1,28.3-7.6,33.7-6.7,51.4-11.7,65.7-18.6,9.7-4.7,10.8-4.7,5.9-.3Zm-136.7,15.1c.7,1.3.4,2.8-1.2,5.5-1.1,2.1-2.4,3.8-2.9,3.8-.9,0-1.1-7.1-.2-9.4.8-2.1,3.1-2,4.3.1Zm88.6,9.3c.8,1.3-.5,1.3-2.5,0-1.3-.8-1.3-1,.2-1,.9,0,2,.4,2.3,1Zm-145.8,20.8c3.4,1.6,8.9,3.5,12.2,4.2l6,1.2-.6,6.9c-.5,5.9-.2,7.9,2.2,14.4,2.7,7.5,2.7,7.6,1,12.2-1.9,4.8-1.2,6.2,2.7,6.3.9,0,2.3.3,3.2.6,2.2.8,2.1-1.4-.3-6.8-2.4-5.7-1.4-7.8,3.8-7.8,2.5,0,4.4.7,5.6,2,1.7,1.9,1.7,2.1.1,3.9-2.6,2.9-4.6,9.3-3.5,11.3.8,1.5,1.3,1.5,4.7.4,3.9-1.4,3.9-1.5,2.7-9.2l-.7-4,4.6-1.8c2.5-1,6.7-3.7,9.4-6.1l4.8-4.3,4.2,4.8c4.5,5.2,15.5,11.5,21.8,12.5,1.9.3,5,.7,6.9,1,4.7.8,4.5,3-.5,5.5-5,2.6-5.6,2.5-9.2-.5s-4.8-3.1-4.8-.4c0,1.3,1,2.3,3,3,3.7,1.4,3.9,3.6.3,5-3.8,1.4-9,.3-11.5-2.7-2.1-2.4-4.8-3.2-4.8-1.5,0,.5.7,1.4,1.5,2.1,3.7,3,.9,7-4.8,7-3.3,0-4.6-.7-7.9-4-2.2-2.2-4.2-4-4.4-4-.1,0,0,1.5.3,3.4.8,5.1-1,7.6-5.7,7.6-3.4,0-4.4-.6-7.9-4.7-4-4.7-4-4.8-7.3-3.4-10.4,4.3-15.5,1.8-15.1-7.6.3-4.9.1-5.4-1.5-4.8-5.5,2.3-8.2,2.5-11.6,1.1-6.4-2.7-7.4-8.6-1.9-12.1,4.2-2.6,4.1-3.5-.1-3.5-6.7,0-12.6-4.1-12.6-8.6,0-2.9,1.6-3.9,6-3.9,2.6,0,3.5-.5,3.8-1.9.4-1.7,0-1.8-3.3-1.3s-4.2.2-7.1-2.7c-1.9-1.9-3.4-4.3-3.4-5.4,0-2.3,3-3.7,6-2.7,1.1.4,2,.2,2-.4s-.7-1.1-1.5-1.1c-2.1,0-7.3-7.5-8.1-11.6-1.2-6.4.6-6,8,1.9,5.2,5.5,8.8,8.4,13.3,10.5Zm24.1,43c-2.7.5-3-.1-1.7-3.4l1.1-2.9,1.3,3c1.2,2.7,1.2,3-.7,3.3Zm14.5-1.1c.7,4.1.3,4.7-3,5.8-1.7.5-2.3.2-2.3-.9,0-1.9,3.1-8.6,4.1-8.6.3,0,.9,1.7,1.2,3.7Z" stroke-width="0"/></svg>