<?xml version="1.0" encoding="UTF-8"?><svg id="Capa_1" xmlns="http://www.w3.org/2000/svg" width="350" height="350" viewBox="0 0 350 350"><path d="m127.1.8c-14.2,3.3-23.5,10-29.2,21.1-8.6,17-7.4,37.6,3.2,53.4,7,10.4,16.1,18.7,41.1,37.3,22.8,17,31.1,23.7,40.8,33.3,10.2,10,19.4,21.8,23.7,30.3,2.9,5.7,4.9,12.8,4.2,14.7-.4.9-3.7.9-22.6.4-32.8-.8-55.7,0-79.9,3.1-18.7,2.4-34.7,6.1-39.8,9.2-2,1.2-2.3,1.8-2.2,4.1,0,1.5-.5,4.1-1.2,5.9-.7,1.8-1.4,4.9-1.7,7-.2,2-.4,3.7-.5,3.7s-2.2-.6-4.8-1.5c-3.2-1-6.6-1.4-11.2-1.4-19.7,0-31.4,12.6-31.5,33.9,0,7.7,1.4,12.8,5.4,20.5,2.7,5.3,13.7,19.1,15.1,19.1s.5.3.3.7c-.2.4-1.2.7-2,.7-3.5,0-19.2,4.5-24.1,6.9-5.5,2.6-9.2,6.1-10,9.1-3.3,13,40.7,28.2,99.9,34.5,28.3,3,33.6,3.3,72.1,3.3s46.8-.4,72.8-3.3c56.9-6.4,102.3-19.2,104.9-29.6.6-2.6-1.7-7.7-4.6-10.3-5.2-4.6-16-8.2-30.3-10.3-13.8-2-26.4-3.2-27-2.6s1.7,1.2,9.2,1.9c10,.9,24.7,3.3,31.1,5,10.8,2.9,16.7,6.3,19,11.3,1.8,3.8,1.7,4.3-.8,7.1-8.2,9.3-52,20.5-102.3,26.1-25.9,2.9-34.7,3.3-72.4,3.3-38.4,0-50-.6-77.5-3.9-49.9-6-89-18.6-92.6-29.9-.6-2.1,1.4-5.5,4.8-7.9,3.9-2.8,12.4-5.9,20.8-7.7,11.6-2.5,10.6-2.6,15.3,1.6,9.1,8.1,29.7,16.7,57.8,24.2,4.8,1.3,11.5,3.5,15.1,4.9,13.6,5.7,28,7.6,57.8,7.6s61.8-4.6,78.2-15.6c8.5-5.7,17.3-16.6,21.6-26.9,3.4-8.1,7.6-29.5,5.8-29.5s-1.1.9-2.2,9.6c-2.2,16.2-8.4,29.2-18.5,39-5.5,5.4-8.2,7.3-14.7,10.5-15.9,7.9-37,11.4-69.9,11.4s-31.3-.7-40.7-2.6c-6-1.1-17.4-4.5-16.9-4.9.1-.1,2.9.1,6,.7,26.8,4.6,74.7,5.2,86.6,1.1,10.8-3.7,25.1-16.6,30.8-27.7,3.8-7.5,6.8-22.2,6.8-33.6s-1.2-6.2-1.7,2.7c-1.2,21.8-5.2,31.8-17.8,44.3-7.3,7.1-13.7,11.5-19.8,13.2-4.5,1.3-22.3,2.5-35.9,2.5-23.4,0-58.2-4.2-65.7-8-9.3-4.7-19.6-13.8-24.6-21.6-1.8-2.9-4.3-6.1-5.3-6.9-1.9-1.6-2.1-2.3-4.7-18.7-3-19.3-2.9-18.7-1.7-17.6,3.3,3.3,6.3-3.1,6.3-13.4,0-8.6-3.2-15.5-8.9-18.9-2-1.2-2-1.4-1.7-5.8.6-6,2.9-11.3,4.6-10.5,11,4.6,43.9,7,97.2,7.1,35.9,0,42.1-.2,65.1-2.9,5.2-.6,9.9-.9,10.3-.6,1,.6,2,3.5,2.8,7.7.8,4.1,1.1,34,.4,37.7-.4,1.8-.3,2.7.3,2.7,1.2,0,1.7-3.1,1.3-8.1-.1-2.4,0-6.2.3-8.4.9-5.6-.4-24.3-1.9-28.6-.6-1.9-1.1-3.6-.9-3.7s4.1-.9,8.9-1.8c13.8-2.5,20.5-4.9,20.5-7.6s-13.6-4.7-28.1-6.3c-9.1-1-27.9-2.5-31.5-2.5s-1.7-.4-1.7-.8c0-.6,2.8-.7,10.7-.4,30.1,1.4,50.5,5.8,55.5,12.2,2.3,2.9,2.5,7.2,1.2,31.1-1.1,20.3-1.1,24.4,0,23.4s2-27.6,2.1-40.3v-12.1c.1,0-1.9-2.6-1.9-2.6-5.4-7-22-11-52.5-12.8l-15-.9v-2.6c0-9.8-10.9-27-27.7-43.8-9.9-9.8-17.4-16-39.3-32.4-26.7-19.9-36-28.4-43.2-39.1-6.3-9.3-9.1-19.8-8.4-31.2.6-9.8,2.9-16.8,8.1-24.7,3.5-5.4,7.4-8.8,13.6-11.8,8.1-4.1,11.9-4.8,23.8-4.8s11.5.2,15.9,1.6c14.3,4.8,25.8,14,33.2,26.9,4.3,7.5,4.4,8.1,2.1,15.1-3.5,10.5-2.5,18,2.2,18s6-8.1,3.3-18.5l-1.4-5.8,1.5-2.6c6.9-12.2,15.9-20.9,27.5-26.5,25.2-12.3,50.4-6.1,61.4,15.3,4.6,8.8,5.7,13.5,5.6,23.9,0,12.8-2.9,21.9-9.9,31.6-6.3,8.8-10.3,11.8-43.7,33.3-16.1,10.4-24.9,18.7-28.6,26.9-1.9,4.3-3,10.8-1.9,10.8s.9-1.6,1.2-3.5c.7-5.6,4.4-11.9,10.5-18,6.2-6.1,11.9-10.2,30.8-22.1,16.5-10.5,22.8-15.2,28.5-21.2,5.8-6.3,9.4-12.3,12.3-20.7,2.1-6.3,2.3-7.6,2.3-16.7,0-8.6-.1-10.8-1.6-15.3-2.7-8.3-6.4-14.8-11.7-20s-11.5-8.8-19.2-10.7c-22.5-5.7-50.3,7.2-63.1,29.1-1.3,2.4-2.7,4.3-2.9,4.3s-.6-.7-.9-1.6c-.6-2.7-7.5-13-11.2-17.2-6.6-7.1-15-12.5-24.9-16-4.3-1.4-6.7-1.8-15.1-2-6.9-.1-11.5,0-14.4.7Zm67.8,45.8c1.4,6.1,1.3,11.8-.3,13.8-2.7,3.3-5.7-.6-4.9-6.5.5-3.8,3.3-12.4,3.8-11.8.2.2.9,2.2,1.4,4.5Zm14.6,146.7c.9.2,1.5.5,1.3.7-.2.3-14.6.4-32,.4-31.4-.1-45.1.4-65.1,2.5-19.6,2.1-37,5.9-43,9.6s-2.5,1.1-2.7.6c-.9-1.4,1.2-2.9,7-4.6,15.4-4.8,46.9-9.1,73.4-9.8,9.2-.3,59.2.3,61.2.6Zm-2.6,2.9c3,.5,3.4,1.8,1.4,4.3-1.2,1.4-1.5,1.5-6.6.9-9.9-1.2-37.9-1.6-50.8-.7-20.2,1.4-33.9,3.7-36.3,6.1-4.3,4.2,12.5,7,42.4,7s44.3-2.4,49.5-7.6l2.5-2.4,6.1,1.1c11,1.9,25.7,6.1,24.7,7.1-1.4,1.4-32.9,3.8-55.6,4.3-19.2.5-63.3-.6-80.6-1.9-18.1-1.4-33.1-3.9-33.1-5.6s8.2-4,15.1-5.8c10.2-2.6,29.5-5.1,48.7-6.3,10.4-.7,68.8-.9,72.7-.4Zm30.8,2.1c14,1.3,24.3,2.8,29.7,4.3,6.6,1.9,5.7,2.7-5.6,5.5-4,1-9.9,2.2-13,2.6-5,.7-6.1.7-7.5-.2-3.4-2.1-23.6-7.6-28.4-7.6-2.9,0-3.4-.9-2.2-3.8l1.2-2.7,7.4.5c4,.2,12.4.9,18.5,1.5Zm-44.5,3.9c6.1.4,11.6,1,12.4,1.3,1.2.5,1.2.7-1.1,2.4-3,2.2-5.5,3-14,4.6s-45.8,2.2-57.5,1.1c-13.1-1.4-18.4-2.6-16.8-4.1,1.5-1.5,22.6-4.6,36.5-5.4,10.1-.6,30.6-.4,40.5.3Zm-133.3,22.5l3.4,1.6v5.2c0,2.9.3,7.1.6,9.5s.9,5.6,1.1,7.3l.4,3.1-6.6-6.6c-7.4-7.3-11.8-9.8-17.5-10.3-2.9-.2-4.1,0-6.1,1.4-7.4,5-9.9,17.3-5.8,27.8,3.7,9.4,13.6,21.4,22.8,27.7l3.6,2.4-5.8.5c-3.2.3-7,.6-8.5.9-2.7.4-3,.2-7.5-4.4-5-5.2-11.7-14.6-13.6-19.2-3.7-8.8-4.3-20.2-1.4-29.3,3.1-9.5,8.1-14.8,16.9-17.8,6.4-2.3,18.7-2.1,24.1.3Zm11.7,9.8c1.9,3.3,2.1,4.1,2.1,11s-1.2,12.8-2.5,12.8-1.4-1.2-2.5-2.7c-1.4-2.1-2-4.3-3-12-.6-5.1-1.2-11-1.2-13.1v-3.7l2.5,2.1c1.4,1.1,3.4,3.6,4.5,5.6Zm-23.7,3.3c3.4,1.6,12.6,10,16.2,14.9,1.9,2.5,2.5,5.3,7.5,37.9l.4,2.7h-14.4l-5.7-4.1c-10.2-7.6-18.2-17.7-21.9-28.4-2.1-5.8-1.7-12.3,1.2-17.9,3.7-7.5,8.6-9,16.6-5.1Zm23.6,57.4c.6.2,1.2,1.1,1.2,1.8,0,1.1-.5,1.4-2.3,1.4s-8.5-2.4-8.5-3.2,8.2-.4,9.7,0Zm-8.7,2.4c2.8,1.2,6,2.1,7.7,2.1,2.5,0,2.9-.2,3.3-1.8.4-1.7.5-1.8,1.8-.6.7.6,2.6,3.3,4.2,5.9,3.1,5.1,9.4,11.5,16.6,16.7,2.5,1.9,4.3,3.3,3.9,3.3s-4.5-1.1-9.3-2.4c-19.2-5.4-37.6-13.3-45.3-19.5-2.4-1.9-4.3-3.8-4.2-4.1.1-.9,5-1.5,11.7-1.6,3.9-.1,5.6.2,9.5,2Z" stroke-width="0"/><path d="m278.8,262.7c0,.8.1,1.4.3,1.4s.4-.6.6-1.4,0-1.4-.3-1.4-.6.6-.6,1.4Z" stroke-width="0"/></svg>