<?xml version="1.0" encoding="UTF-8"?><svg id="Capa_1" xmlns="http://www.w3.org/2000/svg" width="776.5" height="290.2" viewBox="0 0 776.5 290.2"><path d="m388.7.7c-17.7,2.8-34.4,15.1-42.2,31.2-5.4,11-6.6,17.2-6.6,33.5s-.2,14.4-1.7,15c-5.8,2-6.6,6.3-3.3,18.2,2.5,9,4.3,12.6,8.4,17.1,2.2,2.4,4.8,7.7,8.1,16.5,2.7,7.1,5.7,14.7,6.7,16.7,1,2.1,1.8,4.8,1.8,6,0,2.6-5.8,15.3-9,19.8-1.1,1.6-1.8,3.5-1.5,4.3.8,2,13.7,10,23,14.3,9.9,4.6,18.6,6.4,31,6.4s21.3-1.4,31.3-5.7c6.5-2.8,8.6-3.3,9.5-2.4,1.6,1.6-1.8,4.4-9.8,8.2-8.9,4.2-16.8,5.9-27.1,5.9s-20.8-1.8-34.4-6.5c-12.5-4.4-19.9-8.2-26.4-13.5-2.7-2.2-5.4-4-6.1-4s-4.8,1.8-9.1,3.9c-4.4,2.2-11.9,5.4-16.9,7.1-11.5,3.9-31.8,13.8-37.8,18.4-2.6,2-5.2,3.6-5.8,3.6-1.2,0-33.3-21.7-39.5-26.7-2.3-1.8-4.6-3.3-5.1-3.3s-2.1-2.4-3.4-5.3c-3.3-7.5-3.6-16.9-.9-30.3,2.9-14.4,5.1-19.9,11-27.9,5.6-7.6,6.4-10.2,6.3-20.7-.2-9.2-.8-11.8-3.2-11.8s-2.3,2.2-4.5,11.2c-3.6,14.4-10.6,35.9-13.9,42.5-1.5,2.8-5,8-7.9,11.4-2.9,3.5-7.4,9.2-9.9,12.8-6.6,9.5-9,10.6-21.9,10.5-14.1-.1-15.2-.5-19.9-6.7-2.1-2.9-7.3-9.2-11.4-14-6.4-7.3-7.9-9.7-9.6-15.4-7.7-26.4-10.4-51.9-6.8-64.4,3.7-12.5,12.6-21,22.7-21.7,3.8-.2,7.3.3,11.5,1.8,8.6,3,17.2,3.5,29.1,1.6,18.1-2.9,20.4-1.6,29.2,16.2,6.7,13.8,8.8,15.7,10.3,9.9.8-3.1-1.5-36.2-3.2-44.7-1.3-6.4-4.2-13.6-6.7-16.3-5.8-6.5-22-10.2-43.7-10.1-17.2.1-25.6,1.9-37.1,7.7-14,7.1-15.3,10.8-16,43.7-.4,23.4-.7,26-2.9,26s-4.5,4.2-4.5,8.5,5.1,20.2,9.6,27.6c3.6,5.7,3.8,6.7,4.2,15.3.3,9-1.6,19.1-5.8,30.6-.7,1.9-1.4,4-1.6,4.6-.1.7-4.4,2.7-9.5,4.5-14.8,5.3-17.7,9.4-21.3,30.3-.9,4.9-2.3,10-3.2,11.4-1.6,2.4-1.7,2.5-3,.7-1-1.3-1.4-5-1.4-11.7s-.4-9.8-1-9.8c-1.6,0-3,3.7-3,8.2,0,6.4-2.7,22.9-3.9,24.1s-1.5.6-2.6-.3c-1.2-1-1.5-3.5-1.5-11.7s-.2-10.4-1.7-10.1c-2.5.5-3.4,5.2-3.4,18s-.3,11.8-1.5,11.8c-2.7,0-5.4-7.9-5.4-15.8s-.2-7.3-1.8-7c-3.3.6-5.3,6.6-4.6,13.6.6,5.9.5,6.2-1.5,6.2-3.1,0-6.1-5.5-6.1-11.1s.1-4.8,7.3-10.2c9.2-7.1,20.9-14.3,32.5-20.1,5.1-2.5,9.2-4.8,9.2-5.1,0-3.6-6.2-8.5-10.8-8.5s-19,4.9-24,7.4c-5.5,2.8-10.6,7.9-12.3,12.1-.6,1.6-1.5,6.5-2,10.8l-.8,7.8-8.7,9.2c-9.2,9.6-15.6,18.8-24.3,34.8-2.9,5.3-7.5,12.5-10.2,16-5.3,7-6.6,10-2.1,4.7,4.3-5,8.2-11,15.7-24.3,7.8-14,14.8-23.7,23.1-31.9l5.9-5.9.3,3.4c.6,8.1,3.1,11.9,7.8,11.9s2.7,0,2.1-6.1c-.5-4.2-.3-7,.8-9.5,2.2-5.4,3.5-4.2,3.5,3.3.1,8.8,2.8,15.3,6.4,15.3h2.4l.4-14c.2-9.4.7-14.3,1.6-15.2.9-1,1.2.9,1.2,9.3s.7,12.9,3.7,12.9,4.2-4.7,5.3-16c1.7-16.5,2.3-17.9,3-6.3.4,7.5.9,10.7,2.1,11.8,1.5,1.5,1.8,1.5,3.7-.9,1.2-1.6,2.6-6.1,3.6-11.9,4.1-22.8,6.2-25.6,22.9-31.2,4.6-1.6,7.3-2.1,7.6-1.4,1,3.2,22.5,28.3,40.2,47.1,3.3,3.5,8.3,5.8,9.6,4.4.3-.3.1-2.5-.6-4.8-1-3.3-4.1-7-14.6-17.5-7.4-7.3-15.8-16.3-18.8-20-6.5-8-9.4-10.8-12.4-11.8-1.3-.3-2.3-1-2.3-1.5s1.4-5.1,3.1-10.2c2.4-7,3.3-11.9,3.8-19.8l.6-10.5,1.7,6c1.4,5,3.1,7.7,10.1,15.8,4.7,5.4,9.5,11.3,10.8,13.1,4.1,6,6.9,7,20.4,7,14.2.1,16.6-.9,22.1-9.2,2-2.9,6.5-8.7,10.1-12.9,3.5-4.2,7.5-9.7,8.7-12.2,3.3-6.5,11-29.8,14.2-43,3.6-15.1,5.4-14.8,5.5,1,0,9.6-.9,12.4-6.7,19.5-4.7,5.7-7,11.4-10,25-3.4,15.5-3.5,24-.2,32l2.5,6-2.9,1.3c-8.5,3.8-41.8,38.5-41.8,43.5s6.2,3.3,19.5-10.5c16.7-17.4,27.5-29.7,27.5-31.5s.6-1.2,3.3.9c1.7,1.5,11.6,8.4,22,15.4l18.7,12.7-4.4,4.6c-6.8,7-10.3,13.7-13.1,24.8-4.1,16.5-3.2,23.7,3.2,26.7,7.4,3.5,48.8,4.2,54,1,8.1-5.2,2.9-25-9.6-36.7-3.1-2.9-10.5-8.6-16.4-12.6s-10.7-7.6-10.7-8c0-1,13.9-10.1,20-13.2,2.5-1.3,11.4-4.9,19.9-8.2,8.5-3.2,18.2-7.2,21.6-9l6.2-3.1,5.4,4.2c12.2,9.7,33.8,17.8,52.9,20,9.5,1.1,20.5.1,28.4-2.5,7.9-2.7,18.1-8.8,18.4-11.3.6-3.7-2.5-3.5-13.6,1l-10.7,4.3h-16.5c-15.9.1-16.8,0-25.1-3-9.1-3.3-27.7-13.7-28.6-16.2-.4-.8.2-2.6,1.1-4.1,1-1.4,3.4-6.1,5.5-10.3l3.7-7.8,3.2,4.6c2.3,3.2,4.9,5.3,9,7.2,5.6,2.7,5.9,2.7,27.7,2.7s22.3-.1,27-2.3c8.2-3.8,11.9-8.3,16.1-19.6l2.3-6.1v8.5c.1,11.7.9,15.2,4.5,21.3,4.1,6.9,7.3,8.7,41.7,23.7,15.6,6.9,33.9,15.2,40.8,18.6l12.6,6.1-6,3c-6,3-8.1,3.8-18.7,6.8-3.2.8-5.8,2-5.8,2.5s1.5.3,3.3-.4c1.7-.8,5.7-2,8.7-2.6,3-.7,8.8-2.9,12.7-4.9l7.3-3.5,3,2.9c1.6,1.6,3,3.4,3,4.1s.5,1.6,1,1.9c2.2,1.4.8-2.6-2-5.8-1.6-1.9-3-3.7-3-4,0-.9,9.8-4.7,12.2-4.7s4.7,1.4,24.5,15.9c24.9,18.3,26.8,19.7,29.6,20.9,1.5.6,4.1,1.2,5.6,1.2,4,0,31.8-18.6,36.6-24.4,3.7-4.5,4.6-8.6,2-8.6s-24.2,12-31.3,18.1c-5.1,4.5-7.5,3.9-22.4-5.5-7.3-4.6-18-11-23.8-14.2-7.1-4-11.2-7-12.8-9.4s-2.3-4-1.6-11c.9-7.6.8-32.7-.1-38.8-1-6.9.9-5.2,4.1,3.7,4.9,13.7,10.5,25,13.3,27,6.3,4.4,14.1,6.3,25.6,6.2,11.8,0,24.4-1.4,28.8-3,3.5-1.3,6-5.6,9.3-15.6,1.5-4.4,4.7-11.7,7.1-16.2,5.2-9.6,5.7-11.1,8.8-26.9,2.3-11.9,4.8-18.8,7.9-21.3,1.2-1,1.7-.8,3.1,1.3s1.6,4.8,1.3,16.5c-.3,12-.6,14.2-2.2,16-1.1,1.2-2.7,2.1-3.6,2.1-2.5,0-6.8,3.6-8.6,7.3-4.9,9.4-8.5,34.1-6.5,43.9,1.6,7.1,4.3,10.8,11.5,15.6,9.8,6.5,16.1,9.1,29,11.8,6.6,1.4,7.3,1.3,13.8-.7,5.4-1.6,8.8-2,15.7-1.7,8.4.3,9.2.5,14.5,4.2,4.9,3.4,10.5,10,9.4,11.1s-2.6-1.1-5.3-2.9c-7-4.6-13.6-6.6-22-6.6s-16.5,3.4-20.8,9.5c-11,15.4-13.8,22.3-9.8,24.5,2.7,1.4,4.7.4,7.3-3.8,1.2-2.1,4-5.6,6.2-8,6.8-7.5,7.1-4.5.4,4.6-7.2,9.7-8.2,15.2-2.7,15.2s3.9-1.3,9.9-9.4c3.9-5.2,7.5-9.8,8.1-10.1,2.4-1.6,1.6.5-2.6,6.5-5.4,7.7-6,12-1.8,12s4.5-1.9,11-8.7c8-8.6,12.6-11,6.6-3.5-5.3,6.6-6.4,9.6-3.9,10.5,3.4,1.3,19.6-15.5,21.2-22l.9-3.8,3.7,5c2.1,2.7,5.4,8.8,7.4,13.5,6.4,14.7,11.4,25.3,11.9,24.8s-6.2-16.3-12.5-29.5c-2.2-4.5-5.5-10-7.4-12.1s-3.8-5-4.1-6.5c-.9-3.6-8.7-11.1-14.4-13.9-3.8-1.9-6.1-2.3-13.6-2.2-5.6.1-10.7.8-13.4,1.8-5.7,2.1-9.1,2-18.7-.4-14.4-3.7-27.9-11.6-32.2-18.9-2.5-4.3-2.7-5.3-2.5-15.1.2-15.9,4.1-31.8,9.1-37.3.9-1.1,3.6-2.8,6-3.8,5.8-2.5,6.4-4.6,6-21.6-.2-12-.6-14.5-2.1-16-4.2-4.3-8.7,4-12.7,23.7-2.5,12-3.7,15.6-7.9,23.5-2.7,5.2-6.3,13.7-8,18.8-1.8,5.3-4.2,10.3-5.4,11.6-3,2.8-9.4,3.9-25.8,4.7-12.1.6-14.3.5-20.5-1.4-9.2-2.8-10.9-4.2-14.9-12.2-7.7-15.3-11.8-28.4-14.5-46.8-2.9-19.4-2.7-22.5,1.3-27.3,3.7-4.3,5.7-9.7,5.7-15.2s2-13.4,4.3-15.5c2.9-2.7,12.1-5.1,22.7-5.9,11.9-.8,16.3,1.1,21.3,9.4,5.4,8.8,9.4,10.7,22.4,10.8,6.1,0,10.6.4,11.3,1.1s2.9,6.2,5.1,12.5c2.2,6.2,4.2,11.5,4.4,11.7.9.9,10.6-15.1,11.7-19.3,1.1-4,1-5.5-.6-11.3-3-10.4-3.1-15.2-.6-22,1.9-5.1,2-6.5,1-10.1-1.6-5.9-6.9-11.4-17.4-17.7s-11.3-6.9-13.9-8.6c-6-3.9-12-4.3-40.8-3.1-18.7.9-19.8,1-24.2,3.6-2.5,1.5-6.5,5-8.9,7.8s-6.8,6.9-9.9,8.9c-9.6,6.6-13.9,13.1-13.9,21.2s3.6,14.5,7.7,21c4.3,6.9,7.3,13.8,7.3,16.7s-1.5,2.9-3.5,4.1c-5.2,3.2-7,7.2-6.9,15.5.2,11.9,5.6,22.3,12.7,24,2.1.6,2.2,1.2,2.6,16.3.6,20.4.5,25-.4,35.2-.7,7.9-.5,8.7,1.7,12s5.6,5.3,10.8,8.3c13.5,7.8,25,14.7,32.1,19.4,10.1,6.6,11,6.5,20.6-.6,7-5.2,25.7-16.1,27.6-16.1s.7.6.7,1.4c0,2.9-9.7,11.3-23.5,20.4-12.2,8.1-14.4,9.3-17.3,8.8-3.7-.6-13.5-7.2-41.1-28-5.2-3.9-10.4-7.6-11.5-8.3-3.4-2-9.3-1.5-14.6,1.2l-5,2.5-14.2-6.9c-7.9-3.7-27.5-12.6-43.5-19.6-16.1-7.1-30.9-14.2-32.8-15.8-6.1-5-8.7-11.6-9.3-23.4-.5-10.3,1.1-29.6,2.9-35.6,1.5-4.8,2.4-18.4,2.4-35.2v-15l-3.6-7.5c-6.4-13-10.3-15.9-23.1-17-7.8-.7-11-1.6-20-5.4-12.8-5.6-20.2-6.6-29.6-4.2-8.2,2.1-12.7,4.5-19,10.1-6.1,5.5-10.2,12.4-13.4,22.5-1.9,6.4-2.3,9.5-2.2,21,0,8.9.6,15.7,1.6,20,.9,3.6,1.5,6.7,1.2,6.9-.7.8-4.6-4.3-6.4-8.4-2.1-5-5-16.2-5-19.7s2.3-5.8,4.6-5.8,2.3-2.5,2.7-19.5c.3-12.5.7-16.1,2.7-21.5,6.4-18.3,21-32.1,39.5-37.6,4.4-1.3,9.4-1.8,18.5-1.8s13.3.3,19,2.6c3.6,1.4,9.2,2.8,12.4,3.2,3.3.4,7.9,1.5,10.2,2.6,3.8,1.6,4.7,2.7,8,9.6,3.7,7.7,3.7,7.8,2.8,16.3-1,10.6-1,23.5-.1,32.1.7,6.6.7,6.7,6.9,11.1,2.1,1.5,2.3,2.5,2.2,9.5,0,9-2.1,14.7-7.4,20.7-1.8,2.1-3,4-2.8,4.3.9.8,7-6.8,9-11.3,2.5-5.6,3.4-15.9,1.8-20.7-.8-2.6-2.2-4.2-4.5-5.3-3-1.4-3.3-2-3.8-7.2-.3-3.1-.9-8.6-1.3-12.4-.5-4.7-.1-9.8,1.1-17.3,1.9-10.6,1.9-10.7-.2-14.8-1.2-2.2-3.1-6.2-4.3-8.8-2.6-5.8-7.2-8.2-18-9.7-4.2-.6-9.7-2-12.3-3.1-5.6-2.5-22.3-3.5-31.9-2Zm-186.1,15.5c22,3.8,25.5,9.5,28.4,45,2.3,29.5,1.5,31-7,13.2-8.8-18.4-12.2-20.3-30.3-17.3-12.4,2.1-20.2,1.7-29.3-1.4-3.2-1.1-8-2-10.7-2-11.1,0-21.1,9.5-24.7,23.4l-1.7,6.5-.2-14.1c-.2-13.8.9-27.6,2.9-34.9.5-2,2.3-5,4-6.7,3.4-3.4,13.7-8.6,21.2-10.9,11.3-3.4,31.2-3.7,47.4-.8Zm443.9,14.1c2.7,1.9,8.1,5.4,11.9,7.6,9,5.3,12.5,8.2,15.2,12.7,2.8,4.4,2.9,9,.4,16.1-2.1,6-1.8,9.4,1.4,20.6,1.1,3.9,1.5,7.5,1.1,9.6-.6,3.5-9.1,17.8-10.5,17.8s-2.3-4.6-4.2-10.2c-1.9-5.7-4.2-11-5.1-12-1.3-1.3-3.5-1.6-11.6-1.5-12.5.1-16-1.5-21.7-9.8-5.6-8.2-8.2-9.8-16.1-10.3s-20.3,1.3-26.1,3.8c-5.5,2.4-7.3,6.1-8.3,17-.9,9.4-2.3,13.1-6.4,16.9-2.3,2.2-2.6,3.2-2.6,9s.7,10.6,1.5,15.6c2,12.3,2,14.6-.2,13.8-5.3-1.8-9.6-8.7-11.2-17.9-1.7-9.4.9-16.8,6.9-19.9,4.2-2.2,4-6.4-.6-15.1-10.9-20.6-10.6-20-10.7-26.6-.1-9.1,2.6-13.2,13.8-21.3,2.2-1.6,7.2-6.1,11-10,4.3-4.4,8.3-7.6,10.5-8.2,2.1-.7,14.3-1.1,30.1-1.2h26.5c0-.1,5,3.5,5,3.5Zm-253.6,5.4c2.9.5,9.3,2.8,14.3,5.1,7.3,3.3,10.9,4.3,18.5,5,5.2.6,10.8,1.7,12.3,2.4,4.2,2.2,10.7,12,13.1,19.9,1.9,6.2,2,8.4,1.5,22-.4,8.3-1.4,18.7-2.2,23.1-.9,4.4-2.2,12.5-3,18-2.1,15.3-6.5,26.2-12.7,32.2-5.8,5.6-10.1,6.6-31.1,7.1-16.9.3-19.4.2-25.6-1.7-5.8-1.8-7.6-2.9-11-6.7-2.3-2.6-4.2-5.2-4.2-5.8-.1-.6-.2-6.1-.3-12.1-.1-10.1-.3-11.4-2.8-15.7-1.6-2.7-4.6-5.8-7.3-7.5-4.7-3-5.4-4.4-7.6-14.8-1.9-8.8-1.6-28.6.5-36.5,4.8-17.8,17.7-30.8,33.8-33.9,6-1.2,7.8-1.2,13.8-.1ZM130,115.3c1.1,6.6,2.2,13.1,2.5,14.5,1.1,4.6-6.8-10.3-9.7-18.4-3.9-11.1-3.8-15,.4-18.9l3.2-3.1.8,6.9c.4,3.8,1.7,12.3,2.8,19Zm229.3,15.6c2,4,2.6,6.7,2.6,11.7,0,11.1-1.2,10.3-7.3-5.4-3.1-8-5.7-15.3-5.7-16.1,0-2.9,7.7,4.4,10.4,9.8Zm-226.3,51.1c1.5,1.2,4.6,4.7,6.9,7.7,4.3,5.6,13.5,15.3,25.6,27,6.4,6.3,10.1,12,8.9,14-1.2,1.9-5.5-1.6-17-14-11.2-12-30.5-35-30.5-36.3s3.7-.5,6.1,1.6Zm-39.3,6.3c4.2,2.7,2.7,4.6-7.5,9.9-10.6,5.4-25.3,14.7-32,20.2l-4.3,3.4v-5.3c0-14.8,7.8-22.9,27.5-28.4,8.3-2.3,12.3-2.3,16.3.2Zm130.2-.7c0,1.9-19.9,24-32.8,36.3-6.7,6.5-11.2,8.6-11.2,5.4,0-4.9,38.3-43.6,43.2-43.6s.8.9.8,1.9Zm58.8,37.3c14,9.4,18.6,13.2,22.7,19.3,4.5,6.5,6.6,12.7,6.7,19.3.1,7.8-2.1,9.8-11.6,10.5-9.7.7-39.2-.9-43.4-2.4-4-1.4-6.2-5.3-6.2-11.2s4.5-23.1,7.6-28.6c2.7-4.7,11.1-14.1,12.6-14.1s5.7,3.2,11.6,7.2Zm450.5,10.3c6,1.5,8.6,2.9,14.8,7.7,3.4,2.6,3.6,3.1,2.9,6.3-1.1,4.7-2.5,6.8-10.5,14.7-9.6,9.7-12.3,8.9-4.4-1.2,3.4-4.4,4.6-8,2.6-8s-6.4,3.6-10.2,8c-5.9,6.9-9.3,10-11,10-2.6,0-1.1-4.5,3.6-10.7s5.4-7.9,4-8.7c-2-1.3-5.1,1.5-12.1,10.9-4.8,6.5-7.6,9.5-9,9.5-3.1,0-2.5-4.1,1.5-9.6,6.2-8.6,7.5-10.9,7.5-13.2s-.5-2.2-1.1-2.2c-1.3,0-8.6,7.3-13.5,13.5-2.2,2.9-3.5,3.7-4.8,3.2-2.5-1-1.5-4.2,4.2-13.4,6.9-11.2,9.9-14.2,16.2-16.3,6.7-2.3,11.8-2.5,19.3-.5Z" stroke-width="0"/><path d="m516.4,236.2c1,4.2,7,15.6,10.4,19.6,3,3.4,7.2,5.2,10.6,4.4,3.5-.9,17.8-10.7,19.9-13.7,2-2.8,2.1-5.2.8-10.4-1.2-4.8-2.6-5.9-3.1-4.9-.2.4,1,1.9,1.6,3.2,1.5,3.1,1.8,7.9.5,10.5-.6,1.2-4.2,4.3-9.3,7.9-12,8.5-14.7,8.5-21.6.5-3.5-4-6.6-10-8.4-15.9-1.6-5.4-2.6-6.2-1.4-1.2Z" stroke-width="0"/></svg>