<svg version="1.1" id="Layer_1" xmlns="http://www.w3.org/2000/svg" xmlns:xlink="http://www.w3.org/1999/xlink" x="0px" y="0px"
	 width="100%" viewBox="0 0 357 197" enable-background="new 0 0 357 197" xml:space="preserve">
<path fill="none" opacity="1.000000" stroke="#000000" stroke-linecap="round" stroke-linejoin="round" stroke-width="2.000000"
	d="
M357.500000,133.500000 
	C327.496307,133.500000 297.492645,133.500000 266.743683,133.500000 
	C267.930176,102.980339 269.076843,73.485374 270.240814,43.545517 
	C266.658051,42.235619 262.448792,42.791267 258.494629,42.648445 
	C240.006714,41.980679 221.498413,41.902992 203.000458,41.480045 
	C185.165024,41.072243 167.332672,40.521976 149.500443,39.985504 
	C144.667892,39.840115 139.840652,39.518036 134.304764,39.241814 
	C132.581802,67.628746 130.871719,95.803581 129.126663,124.554565 
	C175.313675,127.302246 221.164749,130.029953 267.052094,132.759796 
	C266.165771,136.831940 263.675751,137.827438 259.996582,137.544418 
	C249.673050,136.750320 239.330078,136.211975 229.001923,135.473099 
	C225.797043,135.243820 223.140930,136.117905 221.002457,138.502197 
	C217.219437,142.720093 211.883057,145.383057 208.832260,150.045059 
	C209.553726,152.239304 210.925079,152.414017 212.498199,152.525345 
	C221.168640,153.138962 229.833267,153.834167 238.500031,154.499649 
	C242.782806,154.828522 246.294693,153.503036 249.031647,150.024902 
	C251.073822,147.429733 253.405502,145.062347 256.480042,141.616425 
	C244.757202,139.113800 233.411804,140.146713 222.500000,138.000000 
"/>
<path fill="none" opacity="1.000000" stroke="#000000" stroke-linecap="round" stroke-linejoin="round" stroke-width="2.000000"
	d="
M79.000000,146.000000 
	C81.836182,147.159744 85.022949,147.468063 87.500336,149.499252 
	C86.494644,152.175369 81.634171,151.885269 82.674553,156.511169 
	C91.626167,157.490280 100.817085,158.460129 109.999077,159.508057 
	C124.335892,161.144272 138.654648,162.946854 153.003433,164.467651 
	C166.987656,165.949799 181.005066,167.115982 194.998367,168.516312 
	C205.839874,169.601242 216.669540,170.807541 227.498398,172.014313 
	C231.175140,172.424042 234.825302,173.073135 238.502518,173.477020 
	C241.484161,173.804520 244.343384,173.504547 246.502945,171.002548 
	C254.995773,161.163025 263.484924,151.320190 272.022888,141.519943 
	C272.896179,140.517578 272.439545,139.493118 272.472778,138.499084 
	C273.175446,117.500290 273.777832,96.498024 274.523926,75.500847 
	C274.885376,65.329262 275.466614,55.164879 276.011749,45.000629 
	C276.373016,38.264511 274.842102,36.614548 268.000092,36.494785 
	C249.833145,36.176804 231.660477,36.025387 213.501923,35.440300 
	C198.502335,34.956993 183.503235,34.710793 168.501923,34.405552 
	C158.170486,34.195332 147.847855,33.393223 137.499969,33.496647 
	C132.567642,33.545940 131.356506,34.543835 131.018814,39.501282 
	C129.804214,57.331348 128.808655,75.177528 127.445587,92.995834 
	C126.655441,103.324791 125.647758,113.634628 125.519226,124.000237 
	C125.486549,126.635147 124.142609,128.232727 122.009186,129.515274 
	C112.257721,135.377563 102.275894,140.870422 93.000000,147.500000 
"/>
<path fill="none" opacity="1.000000" stroke="#000000" stroke-linecap="round" stroke-linejoin="round" stroke-width="2.000000"
	d="
M83.500000,105.000000 
	C87.297264,101.459816 83.787056,99.490196 81.451653,98.631493 
	C70.996384,94.787239 60.311432,93.998314 49.487827,97.461960 
	C45.638527,98.693764 44.511620,101.006203 44.389977,104.996643 
	C43.947433,119.514236 45.827835,133.556473 51.964962,147.500000 
	C34.836666,147.500000 18.168333,147.500000 1.500000,147.500000 
"/>
<path fill="none" opacity="1.000000" stroke="#000000" stroke-linecap="round" stroke-linejoin="round" stroke-width="2.000000"
	d="
M147.500000,153.000000 
	C148.500000,153.811752 149.734634,153.970810 150.462280,152.972504 
	C155.554993,145.985519 162.921402,147.881439 169.479919,148.667496 
	C179.472855,149.865189 189.535126,150.144394 199.503052,151.477127 
	C200.358292,151.591492 201.252930,151.401993 202.033508,152.432938 
	C198.092133,160.487366 191.580719,162.899887 182.481445,161.633362 
	C168.873489,159.739258 155.141190,158.738586 141.155411,157.326965 
	C143.114960,152.362091 148.722855,151.938934 151.194656,148.039658 
	C139.760681,145.694000 128.024658,146.765671 116.766579,144.587250 
	C116.779411,143.981735 116.792244,143.376236 116.805077,142.770721 
	C118.703384,141.347153 120.838219,140.150696 122.460075,138.461670 
	C130.566101,130.019882 140.776917,132.558426 150.496857,133.060913 
	C161.510498,133.630280 172.534241,134.359711 183.490845,135.582092 
	C195.644974,136.938095 207.982590,136.276855 220.000000,139.000000 
"/>
<path fill="none" opacity="1.000000" stroke="#000000" stroke-linecap="round" stroke-linejoin="round" stroke-width="2.000000"
	d="
M85.000000,110.000000 
	C82.984596,103.305519 77.693275,100.539864 71.486816,99.585770 
	C62.970226,98.276566 54.502815,98.745682 45.618515,102.357880 
	C50.854454,105.569267 56.191772,106.014252 61.012112,106.232376 
	C67.947975,106.546227 75.187576,108.126106 82.000000,105.000000 
"/>
<path fill="none" opacity="1.000000" stroke="#000000" stroke-linecap="round" stroke-linejoin="round" stroke-width="2.000000"
	d="
M90.500000,148.500000 
	C96.735229,148.154404 102.821449,149.615616 108.995934,150.056900 
	C120.176956,150.856018 131.333328,152.000000 142.500000,153.000000 
"/>
<path fill="none" opacity="1.000000" stroke="#000000" stroke-linecap="round" stroke-linejoin="round" stroke-width="2.000000"
	d="
M77.500000,146.500000 
	C79.793358,143.931122 79.879616,140.504974 80.330055,137.474731 
	C80.868889,133.849762 82.509743,131.849045 85.438171,129.906784 
	C90.335373,126.658730 94.989365,123.203796 96.186028,116.533371 
	C96.797272,113.126137 95.330200,110.746857 94.432739,108.022156 
	C93.869606,106.312500 92.061790,106.346489 90.500763,106.507393 
	C87.457733,106.821037 85.901367,108.928047 85.039589,111.513199 
	C83.963051,114.742584 82.931198,118.019569 83.000000,121.500000 
"/>
<path fill="none" opacity="1.000000" stroke="#000000" stroke-linecap="round" stroke-linejoin="round" stroke-width="2.000000"
	d="
M76.500000,146.000000 
	C69.779877,145.264236 63.073559,144.804489 56.244015,146.705429 
	C59.447788,150.392151 69.146606,150.628708 77.000000,147.500000 
"/>
</svg>