<?xml version="1.0" encoding="utf-8"?>
<!-- Generator: Adobe Illustrator 27.9.0, SVG Export Plug-In . SVG Version: 6.00 Build 0)  -->
<svg version="1.1" id="Capa_1" xmlns="http://www.w3.org/2000/svg" xmlns:xlink="http://www.w3.org/1999/xlink" x="0px" y="0px"
	 viewBox="0 0 362.4 261.8" style="enable-background:new 0 0 362.4 261.8;" xml:space="preserve">
<g transform="translate(0.000000,274.000000) scale(0.100000,-0.100000)">
	<path d="M1450,2651.5c-13.4-12.1-40.1-55.8-59.7-94.7l-36-72.8l-83.3-13.3c-129.6-20.6-147.1-34-265.4-218.4
		C842.1,1999.9,841,1998.7,847.2,1978c10.3-31.6,77.2-23.1,149.2,17c85.4,47.3,223.2,209.9,305.5,360.4l61.7,110.4l77.2,8.5
		c42.2,3.6,92.6,10.9,111.1,14.6c31.9,6.1,32.9,4.9,32.9-35.2c0-46.1-26.7-111.6-98.8-241.5c-58.6-106.8-73-156.5-86.4-294.9
		c-35-348.3-149.2-513.3-351.8-508.4c-76.1,1.2-155.3,34-200.6,80.1c-20.6,20.6-71,91-113.2,156.5c-52.5,81.3-82.3,118.9-96.7,118.9
		c-12.3,0-54.5-38.8-99.8-88.6c-133.7-150.5-268.5-253.6-387.8-299.7c-22.6-8.5-35-18.2-27.8-21.8c24.7-9.7,138.9,49.8,229.4,120.1
		c49.4,37.6,131.7,116.5,183.1,173.5c50.4,57,96.7,104.4,101.8,104.4c4.1,0,26.7-29.1,48.3-63.1c78.2-123.8,142-209.9,174.9-236.6
		c55.5-44.9,144-68,227.3-60.7c115.2,9.7,184.1,61.9,244.8,183.2c45.3,88.6,62.7,157.8,82.3,332.5c18.5,157.8,26.7,182,93.6,305.8
		c61.7,114.1,97.7,202.6,97.7,245.1c0,18.2,4.1,35.2,9.3,38.8s47.3,9.7,94.6,14.6c81.3,6.1,102.9,2.4,374.4-74
		c158.4-43.7,305.5-84.9,326.1-92.2c67.9-20.6,61.7-94.7-11.3-140.8c-56.6-37.6-91.6-40-224.3-21.8l-121.4,17l-30.9-35.2
		c-29.8-32.8-31.9-32.8-72-15.8c-60.7,25.5-171.8,15.8-242.8-23.1c-145-80.1-229.4-274.2-194.4-446.6c7.2-36.4,36-103.1,67.9-160.2
		c37-65.5,58.6-120.1,66.9-165c15.4-87.4,26.7-106.8,74.1-129.8c46.3-21.8,96.7-23.1,175.9-3.6c66.9,15.8,82.3,35.2,93.6,115.3
		c4.1,29.1,18.5,72.8,32.9,97.1c73,126.2,95.7,248.8,61.7,327.6c-9.3,20.6-38.1,65.5-62.8,100.7c-25.7,36.4-50.4,82.5-53.5,104.4
		c-6.2,40,10.3,120.1,27.8,132.3c14.4,10.9,95.7-60.7,125.5-111.6c88.5-151.7,87.4-288.8-4.1-446.6c-55.5-94.7-76.1-149.3-91.6-233
		c-6.2-32.8-19.5-71.6-29.8-87.4c-17.5-26.7-24.7-27.9-120.4-26.7c-117.3,2.4-184.1-17-184.1-54.6c0-19.4,9.3-23.1,63.8-26.7
		c55.5-3.6,98.8,6.1,195.5,40c16.5,6.1,25.7,3.6,29.8-12.1c11.3-34-16.5-54.6-57.6-43.7c-42.2,10.9-152.2-1.2-195.5-23.1
		c-18.5-9.7-30.9-24.3-30.9-37.6c0-20.6,8.2-23.1,77.2-23.1c52.5,0,94.6,8.5,134.8,25.5c48.3,21.8,59.7,23.1,66.9,9.7
		c17.5-35.2-16.5-51-111.1-52.2c-90.5-1.2-146.1-20.6-155.3-52.2c-12.3-46.1,128.6-48.5,202.7-4.9c39.1,24.3,43.2,24.3,49.4,6.1
		c4.1-14.6-3.1-29.1-22.6-48.5c-96.7-91-328.2-74-544.2,38.8c-189.3,99.5-205.7,106.8-263.3,106.8c-65.8,0-119.3-27.9-135.8-71.6
		c-17.5-46.1,2.1-80.1,75.1-128.6c36-23.1,165.6-109.2,288-190.5c217.1-144.4,247.9-160.2,387.8-191.7c18.5-4.9,22.6-13.3,22.6-48.5
		c0-57,24.7-109.2,62.7-132.3c42.2-25.5,63.8-15.8,133.7,63.1l58.6,65.5l59.7-12.1c83.3-18.2,154.3-17,190.3,6.1
		c17.5,9.7,68.9,52.2,115.2,94.7c46.3,41.3,112.1,98.3,146.1,125c33.9,26.7,71,60.7,81.3,75.2c18.5,24.3,18.5,27.9,4.1,44.9
		c-74.1,87.4-335.4-36.4-555.5-263.3l-47.3-49.8l-104.9,21.8c-60.7,12.1-107,27.9-110.1,37.6c-9.3,27.9,40.1,101.9,132.7,197.8
		c109,111.6,129.6,144.4,188.2,303.4c116.2,316.7,274.7,429.6,473.2,339.8c93.6-42.5,155.3-123.8,199.6-260.9
		c58.6-183.2,71-212.4,89.5-212.4c10.3,0,72,30.3,138.9,66.7c152.2,84.9,286,135.9,401.2,154.1c95.7,15.8,114.2,29.1,31.9,23.1
		c-113.2-7.3-271.6-64.3-454.7-166.2c-56.6-31.6-108-53.4-116.2-49.8c-8.2,3.6-31.9,60.7-53.5,126.2
		c-56.6,173.5-84.4,229.3-140.9,277.9c-75.1,65.5-153.3,93.4-240.7,87.4c-91.6-7.3-143-40-221.2-140.8
		c-54.5-69.2-70-100.7-148.1-302.2c-36-91-49.4-111.6-156.4-229.3c-80.2-88.6-122.4-145.6-133.7-178.4l-16.5-47.3l-52.5,8.5
		c-28.8,3.6-75.1,17-103.9,27.9c-52.5,21.8-560.6,353.1-594.6,388.3c-28.8,30.3-18.5,75.2,23.7,101.9
		c58.6,37.6,137.8,24.3,262.3-44.9c123.4-69.2,192.4-98.3,286-121.3c196.5-49.8,401.2,13.3,383.7,116.5c-3.1,18.2-1,37.6,5.1,42.5
		c6.2,3.6,9.3,24.3,6.2,46.1c-2.1,20.6,0,49.8,5.1,63.1c7.2,17,7.2,34,0,48.5c-7.2,15.8-5.1,29.1,9.3,52.2
		c10.3,17,28.8,72.8,41.1,122.6c14.4,65.5,38.1,121.3,81.3,196.6c65.8,115.3,79.2,169.9,68.9,284c-10.3,111.6-75.1,233-161.5,298.5
		l-25.7,19.4l21.6,26.7c21.6,25.5,25.7,25.5,113.2,13.3c186.2-26.7,270.5-6.1,313.7,76.4c23.7,46.1,24.7,58.2,2.1,91
		c-14.4,19.4-84.4,42.5-331.2,111.6c-300.4,82.5-316.8,86.2-417.6,81.3l-104.9-3.6l-21.6,54.6c-20.6,52.2-64.8,97.1-97.7,97.1
		C1480.9,2674.6,1463.4,2664.9,1450,2651.5z M1546.7,2616.3c15.4-18.2,29.8-49.8,33.9-70.4l6.2-36.4l-101.8-12.1
		c-55.5-7.3-102.9-10.9-104.9-9.7c-4.1,4.9,48.3,112.9,68.9,142C1472.6,2661.2,1514.8,2655.2,1546.7,2616.3z M1299.8,2387
		c-59.7-112.9-147.1-233-218.1-303.4c-88.5-86.2-217.1-143.2-217.1-95.9c0,9.7,38.1,74,85.4,144.4
		c46.3,70.4,103.9,157.8,127.6,195.4c23.7,36.4,54.5,75.2,67.9,86.2c27.8,20.6,94.6,38.8,153.3,41.3l39.1,1.2L1299.8,2387z
		 M1952,2127.3c31.9-12.1,31.9-12.1,16.5-49.8c-33.9-78.9-17.5-154.1,53.5-246.3c88.5-114.1,87.4-218.4-5.1-376.2
		c-17.5-29.1-36-82.5-41.1-117.7c-6.2-35.2-18.5-70.4-26.7-78.9c-23.7-20.6-96.7-31.6-169.7-25.5c-78.2,6.1-97.7,29.1-118.3,132.3
		c-10.3,49.8-29.8,101.9-56.6,146.8c-91.6,155.3-106,267-50.4,404.1C1626.9,2097,1791.5,2184.3,1952,2127.3z M1928.3,1171.1
		c12.3-23.1-170.8-57-209.9-40c-24.7,10.9-22.6,12.1,25.7,30.3C1800.8,1182,1920.1,1188.1,1928.3,1171.1z M1929.4,1074
		c8.2-15.8-56.6-36.4-139.9-46.1c-104.9-10.9-100.8,20.6,6.2,48.5C1834.7,1087.4,1923.2,1084.9,1929.4,1074z M1908.8,975.7
		c18.5-8.5,16.5-12.1-17.5-29.1c-41.1-20.6-162.5-26.7-162.5-7.3c0,10.9,52.5,30.3,108,40C1884.1,986.6,1887.2,986.6,1908.8,975.7z
		 M2610.4,724.5c3.1-8.5-17.5-32.8-44.2-54.6s-104.9-88.6-172.8-148c-67.9-59.5-138.9-112.9-158.4-118.9
		c-29.8-9.7-172.8,4.9-184.1,19.4c-6.2,7.3,83.3,98.3,151.2,154.1c145,121.3,243.8,168.7,338.4,165
		C2581.6,740.3,2608.3,733,2610.4,724.5z M1927.3,427.2c38.1-7.3,68.9-17,68.9-21.8c0-19.4-108-121.3-127.6-121.3
		c-11.3,0-33.9,14.6-49.4,32.8c-22.6,25.5-28.8,43.7-28.8,86.2v54.6l33.9-8.5C1841.9,444.2,1888.2,434.5,1927.3,427.2z"/>
</g>
</svg>
