<?xml version="1.0" encoding="UTF-8"?><svg id="Capa_1" xmlns="http://www.w3.org/2000/svg" width="282.4" height="381.3" viewBox="0 0 282.4 381.3"><path d="m0,.5c29.8,5.5,53.4,13.7,70,20.6,3.1,1.3,36.8,15.5,53.8,37.2,5.1,6.4,8.2,12.9,8.3,20.2,0,2,0,9.2-4.4,15.8-1.5,2.2-3.2,3.8-6.7,7.1-5.2,4.9-9.5,8-9.9,8.3-21.4,14.6-40.2,54.4-26.5,81.9,6.5,13.1,22.1,26.1,38.4,24.1,9.9-1.2,20-8.1,24.1-17.8,2.4-5.7,4.6-16.5-1.2-21.8-3.8-3.5-9.3-3-12.3-2.8-13.9,1.2-22.6,13.4-24.5,16.2-2.6,3.9-6,10.3-7.5,27.3-1,11.5-2.4,26.2,2.4,45.9,3.6,14.8,12.9,53.5,38.4,60.4,9.9,2.7,23.8,1,26.9-5.8,2.1-4.5,0-12.5-4.5-14-3.1-1.1-6.4,1.3-6.9,1.6-3.5,2.4-4.2,6.3-4.5,7.9-1.1,6,1.6,11.1,2.9,13.5,9,16.2,32.4,22.9,34.5,23.5,18.2,5,35,1.9,38.4-2.1.1-.2.6-.7,1-.7,2.7.6-.3,25.3-.3,25.3,0,0,0,2.8-.8,6.6-.7,3.8,2.7.4,2.7.4l6.9-5s39.7-28.4,42-29.9c2.4-1.6-.4-2-.4-2,0,0-39.5-5.3-43-5.2-3.5.1-.7,4.4-.7,4.4l4.3,6.1s.3,1,1.7.9,33.7-4.7,33.7-4.7l-37.7,12.2s-2.2.7-2.2,1.8-3.3,14.1-3.3,14.1c0,0-.7,2.2,1.6,1.2,2.3-1,36.4-23.5,38.1-25.7" fill="#fff" stroke="#1d1d1b" stroke-miterlimit="10"/></svg>