<?xml version="1.0" standalone="no"?>
<!DOCTYPE svg PUBLIC "-//W3C//DTD SVG 20010904//EN"
 "http://www.w3.org/TR/2001/REC-SVG-20010904/DTD/svg10.dtd">
<svg version="1.0" xmlns="http://www.w3.org/2000/svg"
 width="823.000000pt" height="570.000000pt" viewBox="0 0 823.000000 570.000000"
 preserveAspectRatio="xMidYMid meet">

<g transform="translate(0.000000,570.000000) scale(0.100000,-0.100000)"
fill="#000000" stroke="none">
<path d="M5317 4562 c-16 -9 -53 -54 -82 -99 -44 -66 -63 -85 -98 -101 -41
-18 -44 -23 -61 -86 -25 -91 -52 -122 -121 -136 -93 -19 -104 -53 -49 -147 51
-87 135 -124 204 -88 38 19 46 36 61 120 12 73 41 115 78 115 22 0 36 -16 22
-24 -5 -4 -17 -30 -27 -59 -23 -72 -51 -126 -86 -166 -16 -18 -35 -45 -41 -60
-6 -14 -25 -44 -42 -66 -18 -22 -50 -79 -72 -126 -22 -47 -45 -89 -52 -93 -6
-4 -11 -14 -11 -22 0 -22 -20 -39 -54 -48 -43 -11 -146 -84 -146 -104 0 -29
29 -62 55 -62 17 0 29 9 39 29 18 33 38 43 70 35 41 -10 91 20 140 85 26 33
53 61 59 61 16 1 82 99 97 145 7 22 21 40 35 45 27 10 65 56 65 79 1 20 24 51
38 51 7 0 14 -11 18 -25 3 -14 19 -35 34 -48 33 -26 38 -47 22 -102 -10 -35
-19 -76 -21 -97 -1 -4 -17 -23 -36 -43 -20 -22 -47 -70 -66 -119 -42 -110 -53
-130 -96 -172 -60 -61 -123 -82 -346 -119 -219 -37 -267 -50 -337 -95 -66 -42
-110 -109 -150 -226 -24 -70 -62 -127 -106 -161 -52 -39 -130 -39 -196 0 -51
29 -109 92 -138 147 -46 88 -131 132 -267 138 l-93 4 0 42 c0 24 -7 62 -14 87
-8 24 -25 81 -37 127 -12 46 -24 81 -26 78 -3 -2 11 -62 31 -131 20 -70 36
-144 36 -165 0 -38 -2 -40 -42 -51 -52 -13 -68 -25 -68 -50 0 -10 -9 -19 -22
-22 -20 -4 -21 -4 -3 -6 17 -1 29 -29 73 -159 66 -193 101 -305 111 -357 7
-31 9 -34 10 -13 1 29 -41 168 -113 375 -25 73 -46 139 -46 147 0 8 9 18 21
21 11 4 36 20 55 37 34 30 35 30 127 26 137 -7 218 -51 266 -147 44 -85 165
-171 242 -171 50 0 119 39 151 86 15 21 44 81 64 131 42 108 78 161 136 203
57 41 139 64 361 100 303 48 334 71 443 330 10 25 34 62 52 82 24 27 37 55 47
100 7 35 14 68 15 73 8 38 -2 66 -29 80 -19 9 -32 25 -36 45 -12 56 -63 29
-81 -43 -4 -17 -21 -37 -44 -52 -22 -14 -42 -37 -49 -56 -17 -48 -79 -137
-100 -144 -11 -3 -36 -30 -57 -60 -36 -52 -54 -67 -54 -45 0 6 -11 22 -25 36
l-24 24 21 38 c52 90 66 119 77 152 6 20 29 57 51 84 22 26 40 53 40 60 0 6
18 34 41 61 47 57 60 80 84 155 10 30 25 66 33 79 15 22 20 23 79 17 199 -19
186 -20 216 4 21 17 27 30 27 59 0 51 30 66 95 49 36 -10 52 -10 78 1 91 37
207 71 300 87 l104 18 31 -23 c47 -33 41 -48 -25 -66 -32 -9 -79 -25 -105 -36
-26 -10 -56 -19 -68 -19 -11 0 -38 -9 -60 -20 -22 -11 -45 -20 -52 -20 -32 0
-90 -23 -118 -46 -33 -28 -38 -53 -16 -87 23 -35 36 -154 36 -314 -1 -136 -9
-226 -23 -239 -12 -12 -205 -10 -262 2 -85 19 -138 18 -158 -4 -31 -34 -48
-107 -61 -255 -9 -100 -18 -153 -27 -161 -8 -8 -59 -23 -114 -35 -55 -12 -139
-38 -188 -57 -119 -46 -145 -44 -177 17 -6 10 -19 19 -30 19 -58 0 -217 -257
-181 -293 7 -7 8 -4 5 9 -12 46 133 274 174 274 9 0 25 -13 34 -30 25 -45 60
-48 148 -15 41 15 118 38 170 52 176 44 168 40 179 76 6 17 13 77 17 132 7
116 27 215 50 250 13 20 25 25 56 25 32 0 165 -27 176 -36 2 -1 -3 -15 -11
-31 -20 -40 -59 -153 -112 -333 -37 -125 -52 -161 -78 -187 l-31 -33 -130 0
c-72 0 -167 -6 -211 -14 -44 -8 -109 -17 -144 -21 -60 -7 -64 -6 -57 11 4 11
10 31 13 47 7 33 -8 35 -48 6 -30 -21 -38 -56 -17 -77 9 -9 8 -12 -7 -12 -10
0 -45 -20 -76 -45 -32 -25 -62 -45 -68 -45 -6 0 -11 -5 -11 -10 0 -14 33 4 90
49 26 20 64 42 86 48 73 22 339 53 452 53 l114 0 -31 -26 c-17 -14 -29 -30
-26 -34 3 -5 0 -12 -6 -16 -8 -4 -9 -3 -5 4 15 24 -9 10 -77 -45 -38 -31 -74
-66 -79 -78 -5 -11 -26 -29 -46 -40 -41 -22 -52 -57 -31 -96 6 -13 15 -54 19
-91 8 -75 7 -73 175 -248 109 -114 243 -170 426 -177 166 -7 303 23 539 121
47 19 106 38 131 41 42 6 47 5 52 -16 4 -13 0 -46 -7 -74 -14 -48 -31 -243
-21 -234 2 3 9 56 15 119 5 62 15 118 21 124 9 8 10 -42 7 -199 -3 -127 -1
-184 3 -145 5 36 8 136 7 223 -1 129 2 161 14 174 9 8 67 24 136 36 120 20
122 20 143 1 33 -29 60 -91 66 -148 7 -73 -18 -131 -148 -348 -86 -142 -109
-189 -105 -209 4 -23 1 -27 -42 -38 -74 -19 -146 -62 -150 -90 -8 -56 108
-122 293 -167 61 -14 116 -28 123 -30 6 -2 12 -14 12 -27 0 -37 20 -47 121
-56 52 -5 108 -14 124 -20 17 -6 62 -45 101 -86 63 -67 75 -75 107 -75 37 0
37 0 37 43 0 50 -49 172 -108 273 -41 69 -40 88 1 61 33 -21 73 -101 96 -194
18 -68 21 -107 19 -230 -3 -174 10 -227 76 -316 122 -164 367 -260 691 -272
l110 -4 -107 9 c-419 36 -652 152 -740 370 -20 50 -22 70 -20 214 2 172 -8
241 -52 340 -30 67 -66 106 -99 106 -16 0 -34 12 -51 35 -33 43 -64 52 -107
30 -24 -13 -47 -16 -88 -12 l-56 6 -23 -45 c-12 -25 -25 -65 -29 -89 -3 -26
-11 -45 -18 -45 -34 0 -247 61 -296 84 -73 35 -118 80 -103 104 14 21 86 57
146 73 44 12 47 11 78 -15 52 -43 129 -78 178 -80 94 -3 54 27 -123 92 -111
40 -111 46 1 232 119 199 164 294 164 345 0 97 -57 205 -108 205 -48 0 -233
-37 -245 -49 -17 -17 -37 -13 -37 8 0 16 12 21 88 31 113 15 125 18 77 18 -22
1 -74 -5 -115 -12 -65 -10 -85 -9 -155 6 -44 10 -89 17 -100 17 -11 -1 15 -9
58 -19 81 -18 107 -30 68 -30 -12 0 -91 -27 -176 -60 -247 -95 -432 -121 -597
-84 -133 30 -255 103 -333 199 -32 39 -37 50 -28 65 7 9 15 35 18 56 21 128
29 150 79 214 27 36 113 130 191 210 l142 145 66 151 c106 244 140 366 104
380 -15 5 -14 8 6 24 22 18 22 22 22 252 -1 200 -3 239 -19 278 -32 81 -32 86
10 114 22 14 59 28 84 32 25 4 59 15 76 25 17 11 41 19 52 19 12 0 45 9 73 20
29 12 74 26 100 31 28 6 55 19 62 30 8 10 40 32 73 49 32 16 75 43 94 60 l35
30 -24 20 c-35 30 -62 25 -106 -20 -32 -33 -46 -40 -77 -40 -21 0 -38 -4 -38
-10 0 -5 -12 -10 -28 -10 -77 0 -321 -60 -392 -97 -51 -26 -124 -7 -135 35 -3
14 -21 42 -38 62 -18 19 -47 67 -66 105 -18 39 -36 77 -41 85 -20 41 -131 54
-183 22z m164 -21 c16 -16 29 -38 29 -48 0 -10 14 -38 30 -63 16 -25 30 -50
30 -56 0 -6 12 -21 26 -35 44 -41 49 -58 19 -69 -14 -5 -25 -14 -25 -20 0 -5
-9 -10 -19 -10 -11 0 -23 -4 -26 -10 -3 -5 -11 -10 -18 -10 -8 0 -8 3 1 12 20
20 14 108 -12 163 -55 120 -165 154 -211 65 -24 -47 -19 -101 14 -146 36 -49
77 -87 115 -107 l30 -15 -45 -7 c-24 -4 -63 -15 -86 -25 -27 -12 -55 -17 -76
-13 -48 7 -81 -34 -97 -124 -7 -43 -19 -76 -32 -90 -27 -29 -80 -39 -118 -23
-64 27 -140 141 -123 186 3 7 24 19 47 25 102 28 123 49 155 157 15 50 22 59
61 79 34 18 56 41 90 94 63 100 88 119 157 119 47 0 59 -4 84 -29z m-28 -75
c70 -69 99 -187 59 -236 -15 -19 -25 -22 -53 -16 -45 8 -102 56 -135 112 -69
117 37 232 129 140z m962 -39 c25 -19 15 -30 -69 -76 -82 -46 -92 -48 -118
-24 -27 24 -22 33 19 33 29 0 43 7 73 40 39 42 64 49 95 27z m-785 -171 c0
-11 -19 -15 -25 -6 -3 5 1 10 9 10 9 0 16 -2 16 -4z m-42 -68 c-5 -65 -31 -74
-167 -56 l-106 14 70 18 c39 10 95 28 125 41 78 33 82 32 78 -17z m-655 -755
l15 -38 -44 -3 c-36 -3 -48 -9 -70 -38 -32 -41 -60 -44 -76 -8 -11 25 -10 29
22 56 42 35 99 67 121 68 10 0 23 -15 32 -37z m827 7 c11 -6 20 -21 20 -34 0
-56 -75 -256 -157 -421 -40 -80 -58 -102 -155 -194 -60 -57 -136 -138 -167
-180 -84 -110 -80 -109 -124 -49 l-38 50 79 82 c188 194 207 217 230 291 87
285 115 371 133 411 l20 47 72 -6 c80 -6 79 -2 -3 13 l-55 9 63 -4 c35 -3 72
-9 82 -15z m-790 -34 c0 -6 -7 -2 -15 8 -8 11 -15 25 -15 30 0 6 7 2 15 -8 8
-11 15 -25 15 -30z m-1440 -510 c0 -10 -72 -48 -78 -41 -10 10 36 45 59 45 10
0 19 -2 19 -4z m1275 -45 c-17 -34 -32 -39 -42 -14 -4 11 3 24 22 41 34 29 43
16 20 -27z m465 -90 c0 -18 -144 -143 -149 -130 -2 8 27 42 64 76 67 61 85 73
85 54z m-125 -175 c55 -59 68 -97 55 -164 -19 -97 -30 -132 -42 -132 -7 0 -9
23 -6 71 4 52 11 79 28 101 13 18 17 29 9 26 -22 -7 -41 -55 -46 -119 -4 -37
-10 -58 -17 -56 -24 8 -56 71 -56 110 0 22 -8 65 -17 95 l-17 54 27 24 c37 31
44 30 82 -10z m1540 -1208 c97 -37 118 -53 57 -44 -46 7 -156 57 -168 77 -5 9
-2 10 12 5 10 -4 55 -22 99 -38z m349 -59 c14 -17 26 -34 26 -39 0 -10 -36
-20 -75 -20 -46 0 -175 43 -175 59 0 8 6 11 16 7 42 -16 64 -16 109 2 67 27
69 27 99 -9z m-152 -50 c43 -17 67 -20 125 -16 l72 5 31 -48 c52 -81 120 -241
120 -282 0 -34 -3 -38 -26 -38 -20 0 -46 20 -103 78 -84 86 -106 96 -226 107
-107 9 -115 12 -115 40 0 14 5 25 10 25 16 0 29 44 31 100 2 58 6 59 81 29z
m-97 -75 c-8 -47 -28 -44 -20 4 4 20 10 46 13 57 6 18 7 18 10 -4 2 -13 1 -39
-3 -57z"/>
<path d="M2967 4443 c-15 -14 -5 -50 22 -84 34 -40 48 -83 32 -93 -16 -10 -14
-26 3 -26 8 0 17 -8 20 -17 15 -52 48 -237 53 -298 2 -38 11 -87 19 -108 22
-58 18 -111 -10 -144 -20 -24 -31 -28 -69 -26 -87 3 -170 68 -182 141 -10 58
-16 62 -10 8 7 -64 24 -89 87 -125 66 -38 108 -46 153 -27 55 23 70 90 40 176
-8 23 -15 61 -15 84 0 37 -40 270 -54 314 -5 13 5 21 43 35 27 9 53 17 59 17
6 0 17 -21 26 -47 41 -129 116 -482 116 -551 0 -65 17 -109 48 -121 38 -16 58
-53 98 -180 18 -58 33 -98 33 -89 1 9 -15 65 -34 125 -34 102 -64 153 -91 153
-24 0 -35 30 -44 117 -17 163 -109 564 -136 594 -8 8 -14 19 -14 24 0 5 -19
37 -41 72 -41 62 -64 83 -91 83 -7 0 -2 -6 12 -13 30 -15 114 -133 105 -147
-9 -15 -105 -13 -105 3 0 6 -16 34 -35 61 -41 58 -43 73 -12 86 21 8 21 9 1 9
-11 1 -24 -2 -27 -6z m118 -183 c-27 -12 -35 -12 -35 0 0 6 12 10 28 9 24 0
25 -1 7 -9z"/>
<path d="M2940 4008 c-25 -5 -54 -11 -66 -14 -36 -7 -71 -42 -109 -111 -29
-52 -35 -74 -30 -97 3 -17 10 -51 14 -76 5 -25 14 -58 21 -75 10 -25 9 -40 -8
-95 -18 -59 -18 -68 -6 -99 14 -34 14 -35 -18 -60 -110 -86 -225 -208 -275
-292 -21 -35 -54 -132 -97 -279 -115 -399 -199 -610 -267 -678 -57 -58 -163
-104 -293 -127 -39 -7 -57 -14 -40 -14 90 -3 285 73 342 132 73 76 176 345
292 767 37 134 72 204 144 292 49 59 169 170 222 204 13 9 48 17 78 18 l54 3
17 -96 c20 -113 38 -161 59 -161 9 0 25 -9 36 -20 11 -11 27 -20 35 -20 36 0
111 48 195 124 96 87 118 112 123 145 2 11 11 29 20 39 24 27 21 49 -12 83
-38 37 -56 37 -95 -5 -36 -38 -152 -136 -162 -136 -4 0 -4 24 -1 53 4 34 3 43
-3 27 -4 -14 -8 -40 -9 -57 -1 -46 19 -43 77 11 65 60 88 71 95 46 5 -18 22
-29 70 -44 16 -5 16 -8 3 -35 -24 -45 -183 -188 -242 -217 -83 -41 -118 -13
-67 53 62 81 81 133 50 133 -24 0 -55 -43 -75 -105 -11 -33 -25 -61 -31 -63
-17 -6 -39 56 -57 160 l-17 93 42 88 c45 95 51 98 121 74 23 -8 37 -20 41 -37
l7 -25 1 26 c1 28 -21 43 -84 55 -27 5 -41 2 -55 -11 -11 -10 -20 -22 -20 -27
0 -5 -12 -34 -26 -64 -21 -44 -29 -53 -39 -44 -10 9 -25 6 -61 -9 -37 -17 -50
-19 -61 -9 -17 14 -14 66 7 139 12 41 11 51 -3 82 -9 19 -17 44 -17 56 0 11
-5 40 -11 63 -11 41 -9 47 27 111 45 80 62 92 151 111 80 16 95 11 123 -44 26
-52 25 -55 -9 -29 -25 18 -39 21 -87 17 -47 -4 -62 -10 -81 -32 -13 -15 -23
-35 -22 -44 0 -13 2 -12 9 4 26 65 125 86 186 39 18 -14 35 -25 38 -25 9 0
-32 102 -46 116 -20 19 -49 22 -98 12z m425 -513 c28 -27 32 -57 11 -74 -10
-9 -16 -8 -25 3 -7 8 -28 20 -47 26 -40 14 -41 16 -12 47 27 29 43 29 73 -2z
m-475 -59 c0 -15 -21 -26 -51 -26 -28 0 -23 17 9 28 37 14 42 14 42 -2z m441
-12 c9 -11 9 -14 0 -14 -18 0 -51 19 -51 29 0 13 37 2 51 -15z m-241 -117 c0
-16 -54 -102 -70 -112 -9 -5 -10 -1 -5 16 23 74 75 140 75 96z"/>
<path d="M576 3568 c-3 -13 -6 -44 -6 -69 0 -25 -3 -48 -6 -52 -3 -3 -17 7
-31 24 -51 60 -65 24 -25 -62 17 -35 35 -84 42 -109 21 -77 58 -142 143 -247
66 -83 100 -115 177 -167 52 -36 118 -81 146 -100 50 -34 104 -61 104 -51 0 3
-19 14 -42 26 -24 12 -81 49 -128 83 -47 34 -102 72 -122 85 -52 31 -205 218
-232 283 -13 31 -13 32 21 55 18 13 38 23 43 23 13 0 148 -135 184 -183 33
-45 122 -105 168 -114 18 -3 72 -26 120 -49 104 -52 118 -54 119 -16 0 15 3
36 5 47 3 11 8 43 13 70 10 64 42 134 72 161 72 63 174 87 226 52 16 -10 43
-28 61 -40 43 -27 53 -53 62 -168 4 -52 9 -101 11 -109 3 -8 -12 -18 -39 -26
-40 -12 -43 -12 -37 3 4 10 12 44 18 77 20 115 -13 183 -93 191 -26 3 -55 -1
-70 -8 -31 -17 -70 -74 -69 -102 1 -16 3 -13 10 9 16 55 50 87 99 91 93 10
130 -47 112 -171 -6 -38 -14 -81 -18 -94 -6 -22 -5 -23 17 -17 13 4 38 11 54
15 22 5 29 12 27 27 -2 10 -7 62 -11 114 -11 121 -23 152 -66 173 -19 9 -35
20 -35 25 0 4 -13 15 -29 25 -35 20 -118 14 -171 -14 -99 -52 -133 -118 -157
-306 -3 -24 -9 -43 -13 -43 -5 0 -47 20 -94 45 -48 25 -97 45 -109 45 -31 0
-119 53 -154 91 -15 18 -70 75 -120 127 -51 52 -93 97 -93 100 0 3 -10 16 -22
30 -19 19 -24 39 -29 110 l-6 87 -1 -84 c-2 -76 0 -87 24 -118 20 -26 22 -33
9 -33 -9 0 -27 -7 -40 -16 -24 -16 -25 -15 -35 11 -5 14 -10 29 -10 31 0 3
-14 37 -31 76 -17 38 -28 72 -25 76 4 3 20 -10 36 -29 25 -28 31 -32 40 -19 5
8 10 34 10 57 0 23 5 45 10 48 12 8 13 45 1 45 -5 0 -11 -10 -15 -22z m39
-288 c-10 -11 -23 -20 -29 -20 -6 1 0 10 13 20 30 26 39 26 16 0z"/>
<path d="M2392 3528 c-6 -7 -29 -64 -52 -126 -40 -106 -45 -114 -94 -149 -28
-21 -79 -61 -113 -90 -34 -29 -76 -59 -93 -68 -17 -9 -68 -45 -113 -82 -103
-83 -243 -155 -257 -133 -7 11 -14 12 -27 4 -11 -6 -49 -8 -95 -5 -97 7 -118
25 -135 114 l-12 62 5 -59 c2 -32 9 -67 15 -77 16 -30 64 -49 125 -49 75 0 63
-11 -23 -20 -55 -6 -79 -4 -123 11 -30 11 -78 22 -107 25 l-51 7 -25 -49 c-39
-78 -60 -152 -53 -188 4 -18 -1 -84 -9 -147 -24 -179 -26 -224 -4 -104 11 61
21 157 22 215 3 90 8 114 32 170 16 36 33 71 39 79 13 17 95 7 140 -17 36 -18
163 -20 209 -3 20 8 34 8 48 1 17 -9 19 -22 19 -105 0 -91 1 -94 29 -117 29
-23 29 -23 19 -88 -12 -78 -16 -415 -5 -426 4 -4 10 -4 15 0 4 4 9 128 12 274
3 147 9 273 13 280 5 7 69 53 144 103 74 50 149 104 166 121 18 17 58 48 89
70 38 25 65 53 79 81 12 23 47 69 78 102 31 33 79 87 106 120 26 33 59 71 73
84 33 32 14 52 -27 28 -16 -9 -32 -17 -35 -17 -3 0 -7 33 -9 73 l-3 72 -2 -73
c-2 -81 12 -100 48 -67 36 33 34 5 -1 -33 -20 -20 -53 -58 -74 -84 -20 -27
-41 -48 -44 -48 -12 0 -40 67 -31 76 4 5 24 54 44 109 21 55 44 111 52 123 17
26 14 41 -4 20z m-82 -322 c0 -6 -9 0 -20 14 -26 33 -25 52 0 21 11 -13 20
-28 20 -35z m-21 2 l23 -27 -43 -54 c-24 -30 -52 -69 -61 -86 -9 -17 -38 -45
-64 -63 -26 -18 -72 -54 -102 -81 -30 -26 -110 -83 -178 -128 -99 -65 -125
-88 -137 -116 l-14 -36 -21 21 c-19 19 -22 33 -22 116 l0 94 93 47 c51 26 135
80 186 121 51 41 97 74 101 74 8 0 31 18 180 138 14 11 27 18 30 14 3 -4 16
-19 29 -34z m-629 -338 c0 -5 -5 -10 -11 -10 -5 0 -7 5 -4 10 3 6 8 10 11 10
2 0 4 -4 4 -10z m60 -545 c0 -117 -4 -185 -10 -185 -6 0 -10 33 -10 78 0 91
11 292 17 292 1 0 3 -83 3 -185z"/>
<path d="M3121 3484 c0 -11 3 -14 6 -6 3 7 2 16 -1 19 -3 4 -6 -2 -5 -13z"/>
<path d="M6965 3451 c-3 -6 0 -31 6 -57 11 -42 10 -48 -6 -60 -12 -9 -21 -34
-26 -71 -4 -32 -11 -69 -14 -83 -4 -17 -1 -14 9 9 9 18 16 51 16 72 0 27 6 45
20 56 22 19 25 48 10 88 -16 41 0 53 26 20 l23 -29 44 22 c49 24 69 27 97 12
22 -12 18 -30 -17 -78 -31 -42 -75 -64 -131 -66 -28 0 -47 -6 -50 -14 -3 -11
9 -12 61 -7 45 5 67 4 72 -4 10 -17 -13 -109 -41 -160 -23 -42 -33 -111 -16
-111 5 0 7 13 4 29 -2 16 3 39 11 52 20 31 57 145 57 175 0 12 -7 25 -16 28
-13 5 -7 14 28 46 25 22 51 54 58 71 12 28 12 33 -5 45 -28 20 -72 17 -118 -8
-29 -17 -41 -20 -44 -10 -6 16 -32 42 -43 42 -5 0 -11 -4 -15 -9z"/>
<path d="M6806 3284 c-46 -53 -66 -58 -36 -8 35 56 21 56 -56 -1 -9 -6 -25 -2
-52 13 -22 12 -46 22 -53 22 -8 -1 2 -8 21 -17 l35 -16 -30 -7 c-28 -7 -29 -8
-4 -9 34 -1 74 -46 90 -99 28 -95 -34 -212 -112 -212 -69 0 -119 65 -119 155
0 71 50 154 94 156 18 1 18 2 3 6 -48 13 -107 -79 -107 -167 0 -85 41 -147
103 -157 58 -9 27 -21 -89 -34 -55 -6 -114 -17 -132 -25 -31 -13 -34 -13 -57
12 -14 15 -30 45 -37 66 -10 34 -9 45 5 71 32 58 233 248 290 272 18 8 25 14
17 15 -22 0 -79 -36 -129 -84 -111 -103 -178 -175 -190 -204 -18 -44 -7 -91
34 -139 20 -23 30 -44 25 -49 -9 -10 -53 -185 -69 -279 -7 -37 -35 -110 -76
-193 -36 -74 -63 -138 -59 -143 3 -5 15 -8 27 -8 17 1 18 2 5 6 -10 2 -18 11
-18 18 0 8 27 67 60 132 42 84 62 138 71 188 15 90 54 248 66 270 7 12 25 17
64 19 30 2 88 15 129 29 41 14 104 30 138 37 54 9 67 9 87 -4 36 -24 42 -21
70 33 13 28 33 54 42 60 17 10 17 10 0 11 -9 0 -23 -11 -29 -25 -18 -40 -28
-10 -26 75 1 41 -3 84 -9 94 -9 16 -4 23 36 50 25 17 46 38 47 46 0 9 -1 10
-3 2 -3 -6 -26 -24 -51 -39 -26 -15 -48 -28 -50 -29 -2 -1 2 -12 8 -24 10 -18
16 -136 11 -206 -1 -15 -62 -27 -95 -18 l-26 6 25 29 c57 69 57 196 -1 260
-16 18 -16 19 3 19 11 0 33 10 48 22 l27 21 -16 -31 c-19 -37 -20 -42 -4 -42
7 0 32 19 56 43 28 26 46 37 49 30 8 -21 22 -15 16 7 -8 29 -23 23 -67 -26z
m-17 -359 c-9 -9 -19 -11 -29 -5 -12 7 -10 11 10 18 31 12 39 6 19 -13z m-116
8 c-7 -2 -19 -2 -25 0 -7 3 -2 5 12 5 14 0 19 -2 13 -5z m-203 -53 c-61 -21
-110 -25 -110 -10 0 9 25 15 95 23 64 8 68 4 15 -13z"/>
<path d="M6911 3133 c0 -13 -10 -28 -21 -35 -13 -9 -20 -23 -19 -43 2 -27 2
-27 6 -5 3 14 14 32 25 41 13 10 18 23 15 40 -4 23 -4 23 -6 2z"/>
<path d="M3056 3085 c-22 -23 -46 -85 -46 -118 0 -8 -15 -47 -34 -87 -49 -101
-61 -186 -42 -280 9 -40 29 -102 45 -137 17 -34 28 -63 26 -63 -7 0 -201 148
-213 163 -8 9 -21 38 -31 64 -21 60 -34 63 -147 27 -200 -64 -262 -154 -105
-154 46 0 105 -20 166 -55 l44 -26 -39 -51 c-73 -91 -67 -123 22 -115 73 6
106 26 110 68 3 30 5 29 128 -95 134 -133 216 -186 290 -186 42 0 96 31 105
59 8 27 16 26 46 -5 66 -71 142 -71 201 1 20 24 38 92 37 137 -1 23 -4 15 -10
-24 -10 -71 -30 -110 -68 -137 -32 -23 -57 -26 -94 -12 -38 15 -97 71 -97 92
0 10 -4 19 -9 19 -15 0 -81 319 -81 391 0 36 18 47 29 17 23 -61 52 -204 60
-298 l10 -105 -5 105 c-6 144 -50 330 -79 330 -35 0 -30 -87 15 -297 16 -73
33 -141 39 -152 23 -42 -34 -111 -90 -111 -87 0 -193 73 -348 239 -95 103
-107 112 -212 165 -91 45 -122 56 -161 56 -50 0 -88 13 -88 30 0 21 76 64 167
96 54 19 106 34 116 34 12 0 23 -13 33 -37 27 -68 34 -77 106 -133 40 -30 96
-74 125 -97 29 -24 55 -43 57 -43 2 0 -16 44 -40 98 -72 162 -77 270 -17 405
27 60 38 69 48 38 13 -41 112 -70 260 -76 l110 -4 -105 9 c-164 14 -241 39
-262 85 -10 22 -6 31 33 82 47 61 68 93 69 106 0 17 -53 5 -74 -18z m57 2
c-18 -28 -87 -116 -90 -114 -7 7 19 77 38 101 21 26 68 38 52 13z m-348 -708
c11 -10 23 -18 28 -18 4 -1 7 -3 7 -6 0 -3 0 -18 0 -34 0 -24 -6 -31 -40 -45
-22 -9 -58 -16 -80 -16 -53 0 -53 19 1 94 41 58 46 59 84 25z"/>
<path d="M7032 2967 c-7 -8 -19 -33 -27 -57 -19 -54 -39 -77 -74 -85 -15 -3
-49 -24 -75 -45 -27 -22 -52 -40 -56 -40 -5 0 -28 -38 -51 -85 -27 -57 -51
-91 -68 -100 -24 -12 -26 -18 -27 -92 -1 -43 -3 -86 -3 -96 -1 -10 12 -41 29
-68 41 -64 35 -79 -32 -81 -46 -1 -48 -2 -14 -5 52 -6 86 4 86 23 0 9 -15 43
-34 77 -28 49 -33 66 -24 81 6 11 8 41 4 75 -6 55 -6 58 24 80 19 14 44 50 65
96 21 48 43 79 62 91 15 10 38 27 51 38 13 12 47 32 75 46 46 22 54 31 67 71
8 26 21 54 29 63 8 9 12 19 9 21 -3 3 -10 -1 -16 -8z"/>
<path d="M1166 2872 c-3 -5 -8 -29 -11 -53 -4 -24 -9 -51 -11 -59 -3 -8 -7
-46 -9 -85 -3 -76 -27 -181 -52 -230 -22 -43 -43 -65 -84 -85 -44 -23 -78 -89
-142 -275 -126 -369 -233 -541 -389 -626 -62 -33 -65 -34 -183 -34 -93 0 -131
4 -168 19 -27 10 -50 16 -53 13 -3 -3 19 -13 48 -23 40 -15 82 -19 173 -19
113 0 123 2 180 30 157 78 275 263 396 619 62 182 105 266 149 289 74 38 109
117 134 293 8 56 21 115 30 132 18 34 21 88 7 97 -5 3 -12 1 -15 -3z m3 -76
c-9 -8 -10 -5 -5 14 3 14 6 32 7 40 1 8 4 2 6 -14 3 -16 -1 -34 -8 -40z"/>
<path d="M1113 2225 c-5 -38 -8 -73 -6 -77 2 -5 15 -8 29 -8 13 0 24 -4 24
-10 0 -5 -9 -10 -19 -10 -10 0 -22 -7 -25 -16 -7 -18 3 -66 16 -75 16 -11 -30
-205 -73 -306 -33 -77 -43 -114 -47 -173 -3 -52 -12 -89 -29 -121 -14 -28 -26
-72 -30 -112 -3 -37 -12 -72 -19 -78 -9 -7 -14 -32 -14 -63 0 -40 -7 -60 -30
-95 -17 -24 -30 -51 -29 -60 0 -9 4 -6 10 9 6 14 19 35 31 47 14 15 23 42 27
86 4 36 12 71 18 78 5 8 13 42 16 77 4 36 17 83 32 112 16 32 25 66 25 97 0
61 13 105 61 218 21 50 41 110 44 135 4 25 11 67 17 94 l11 48 36 -6 c20 -3
95 -8 166 -10 l130 -5 -110 9 c-229 18 -225 16 -208 78 l6 24 241 -4 c132 -2
249 -7 258 -12 23 -11 36 -95 17 -107 -12 -7 -11 -9 1 -9 13 0 21 -32 39 -152
46 -306 78 -441 126 -518 12 -19 34 -66 50 -105 15 -38 35 -86 45 -105 10 -19
21 -51 25 -70 4 -19 28 -82 55 -140 27 -58 51 -121 55 -140 l6 -36 -40 4 c-27
3 -50 -2 -67 -13 -14 -9 -27 -15 -28 -13 -23 27 -82 132 -102 180 -14 35 -34
74 -44 88 -19 28 -50 115 -50 142 0 22 -94 206 -120 233 -27 29 -50 89 -50
131 0 75 -157 354 -199 354 -11 0 -30 -28 -56 -85 -21 -46 -56 -107 -77 -135
-21 -28 -38 -56 -38 -62 0 -6 -13 -39 -29 -72 -20 -40 -36 -97 -46 -166 -10
-60 -29 -135 -46 -175 -16 -38 -43 -123 -59 -188 -16 -65 -37 -131 -45 -147
l-15 -29 -33 19 c-17 10 -53 22 -79 25 l-47 7 16 31 c8 17 17 61 19 97 l3 65
-9 -65 c-10 -72 -35 -136 -56 -144 -9 -3 -14 -20 -13 -43 0 -21 -15 -83 -34
-138 -48 -137 -50 -150 -31 -170 30 -29 81 -1 152 83 68 82 90 121 98 172 4
25 15 56 25 69 19 24 49 114 69 206 6 28 26 88 44 135 19 48 41 131 51 190 10
61 27 124 40 150 13 25 27 56 31 70 3 14 22 46 40 71 18 25 52 85 75 132 23
48 45 87 50 87 18 0 80 -92 132 -195 41 -83 56 -125 60 -169 5 -45 13 -70 36
-100 54 -74 119 -200 135 -265 17 -68 96 -239 154 -334 29 -48 34 -62 24 -77
-12 -20 -7 -30 19 -30 12 0 20 -11 24 -33 23 -105 135 -195 209 -167 51 19 46
51 -23 143 -23 31 -45 73 -51 102 -7 28 -16 68 -22 90 -5 22 -27 76 -48 120
-21 44 -47 107 -58 140 -29 87 -66 178 -117 280 -24 50 -48 106 -54 125 -23
82 -95 503 -90 532 1 7 0 20 -4 28 -3 8 -8 31 -11 51 -11 63 -13 64 -288 67
-205 3 -248 6 -248 18 0 8 -10 14 -23 14 -33 0 -35 5 -25 61 5 28 8 58 6 67
-2 9 -9 -14 -15 -53z m43 -137 c-3 -13 -6 -29 -6 -35 0 -23 -18 -14 -24 12 -8
30 -1 45 21 45 11 0 14 -6 9 -22z m-231 -1310 c35 -16 31 -25 -12 -32 -21 -4
-49 -9 -63 -11 -39 -8 -53 6 -40 40 10 25 13 27 50 21 22 -3 51 -11 65 -18z
m30 -75 c-11 -60 -41 -108 -113 -183 -51 -53 -74 -70 -95 -70 -23 0 -27 4 -27
27 0 15 17 78 37 140 36 109 39 113 63 109 14 -3 41 -2 60 3 19 5 46 9 59 10
22 1 23 -2 16 -36z m1115 -1 c0 -7 -82 -52 -94 -52 -2 0 -6 7 -10 15 -3 9 5
20 22 29 29 16 82 21 82 8z m36 -49 c9 -21 33 -60 54 -88 50 -66 57 -89 30
-108 -61 -43 -183 47 -205 150 -6 30 -4 33 42 57 26 14 52 25 56 26 4 0 15
-17 23 -37z m-146 7 c0 -5 -7 -10 -16 -10 -8 0 -12 5 -9 10 3 6 10 10 16 10 5
0 9 -4 9 -10z"/>
<path d="M1533 1993 c26 -2 68 -2 95 0 26 2 4 3 -48 3 -52 0 -74 -1 -47 -3z"/>
<path d="M6327 1719 c-26 -157 -34 -324 -17 -334 8 -5 18 -1 26 9 16 22 43
145 49 221 4 44 -1 28 -19 -60 -27 -133 -33 -155 -49 -155 -13 0 -4 161 18
298 9 56 15 110 13 119 -2 9 -11 -35 -21 -98z"/>
</g>
</svg>
