<?xml version="1.0" standalone="no"?>
<!DOCTYPE svg PUBLIC "-//W3C//DTD SVG 20010904//EN"
 "http://www.w3.org/TR/2001/REC-SVG-20010904/DTD/svg10.dtd">
<svg version="1.0" xmlns="http://www.w3.org/2000/svg"
 width="491.000000pt" height="567.000000pt" viewBox="0 0 491.000000 567.000000"
 preserveAspectRatio="xMidYMid meet">

<g transform="translate(0.000000,567.000000) scale(0.100000,-0.100000)"
fill="#000000" stroke="none">
<path d="M2203 5500 c-297 -38 -603 -153 -863 -325 -117 -78 -319 -271 -384
-366 -32 -48 -36 -60 -27 -78 10 -18 21 -21 76 -21 l64 0 133 133 c146 146
241 215 423 307 562 286 1157 258 1628 -77 165 -118 373 -348 477 -529 81
-141 160 -360 160 -441 l0 -23 -190 0 c-147 0 -191 3 -189 13 4 30 -4 39 -46
57 -25 11 -45 23 -45 28 0 4 19 19 43 32 51 29 58 38 50 70 -10 43 -23 51 -74
49 -27 -2 -51 0 -55 3 -3 3 6 24 20 47 32 50 32 62 3 89 -30 29 -39 28 -88 -8
-23 -16 -45 -27 -50 -24 -5 3 -9 31 -9 64 0 62 -6 70 -59 70 -22 0 -31 -8 -49
-45 -12 -25 -26 -45 -32 -45 -6 0 -20 21 -33 48 -20 42 -26 47 -52 44 -55 -6
-65 -18 -65 -77 0 -30 -3 -55 -8 -55 -4 0 -24 11 -44 25 -45 30 -48 30 -82 4
-33 -26 -33 -50 -1 -97 23 -34 24 -37 8 -44 -10 -3 -37 -7 -60 -7 -39 -1 -42
-3 -54 -38 -13 -41 -8 -48 62 -86 l33 -18 -44 -29 c-54 -35 -60 -46 -48 -87 8
-33 9 -33 68 -33 33 0 60 -2 60 -5 0 -3 -12 -27 -27 -54 l-28 -49 24 -26 c30
-32 47 -33 93 -1 20 14 39 25 42 25 4 0 6 -24 6 -53 0 -63 11 -77 61 -77 36 0
38 2 54 53 26 79 60 126 108 146 23 10 55 33 71 50 29 31 31 31 128 31 59 0
98 -4 98 -10 0 -6 -27 -10 -60 -10 -76 0 -83 -14 -39 -75 31 -44 32 -45 14
-65 -24 -27 -48 -25 -95 6 -21 14 -44 23 -50 19 -7 -4 -10 -29 -9 -62 3 -58
-7 -73 -47 -73 -13 0 -26 12 -37 35 -9 19 -22 35 -29 35 -7 0 -30 -33 -50 -73
-21 -39 -60 -96 -88 -126 -27 -30 -50 -60 -50 -68 0 -19 40 -16 84 8 45 24 60
20 81 -21 17 -34 19 -32 -65 -99 -37 -29 -18 -53 58 -70 l62 -15 0 -48 0 -48
-39 0 c-55 0 -91 -15 -91 -39 0 -10 17 -40 39 -66 41 -49 42 -64 12 -104 l-19
-25 -52 17 c-60 19 -86 21 -95 7 -3 -5 2 -38 11 -71 l17 -62 -22 -19 c-35 -27
-51 -23 -103 29 -59 58 -76 53 -98 -30 -8 -30 -18 -59 -22 -62 -4 -4 -23 -4
-42 -1 -31 6 -37 12 -46 49 -17 66 -31 97 -45 97 -7 0 -34 -21 -59 -47 l-47
-47 -34 19 c-40 21 -42 35 -20 109 22 72 12 79 -82 49 -51 -16 -54 -16 -67 3
-35 46 -31 65 26 117 l52 49 -21 18 c-12 10 -43 21 -68 24 -37 6 -48 12 -56
33 -5 15 -7 39 -4 55 6 25 11 28 48 29 107 3 122 32 51 101 -46 45 -47 48 -34
78 7 17 16 33 21 36 4 2 38 -6 73 -18 62 -22 66 -22 83 -5 15 15 16 22 4 59
-17 56 -19 100 -4 105 12 4 75 -83 113 -156 21 -42 21 -44 3 -54 -29 -17 -73
-67 -96 -111 -52 -101 -10 -250 87 -311 66 -41 158 -43 225 -5 72 41 102 87
108 164 5 57 2 72 -22 121 -39 81 -86 110 -179 110 -59 0 -71 3 -74 17 -8 42
106 48 193 9 l44 -20 27 22 c46 35 114 136 114 168 0 37 -32 69 -69 69 -23 0
-38 -10 -67 -45 -20 -25 -42 -45 -50 -45 -8 0 -17 23 -25 61 -14 73 -29 89
-78 89 -46 0 -55 -9 -71 -78 -6 -28 -16 -55 -21 -58 -5 -3 -32 18 -59 46 -40
41 -55 51 -74 46 -17 -4 -30 2 -51 24 -43 45 -103 83 -120 76 -19 -7 -19 -55
0 -130 8 -32 13 -62 9 -67 -8 -14 -73 -39 -99 -39 -17 0 -32 14 -55 53 -33 54
-78 107 -91 107 -18 0 -39 -34 -54 -88 -26 -91 -37 -102 -96 -102 -84 0 -89 7
-89 108 0 55 -4 92 -12 100 -22 22 -54 12 -93 -29 -22 -23 -55 -48 -73 -56
-30 -12 -37 -12 -70 4 -52 25 -64 63 -34 111 54 88 66 120 52 136 -15 19 -63
20 -146 5 l-59 -11 -26 32 c-54 64 -47 83 55 152 70 47 78 64 43 92 -15 12
-44 28 -65 35 -90 32 -102 41 -102 78 0 19 7 47 15 63 15 30 17 30 99 30 66 0
89 4 106 18 21 17 22 22 12 50 l-11 32 60 0 c34 0 59 -3 57 -7 -58 -116 -71
-173 -66 -286 5 -113 33 -182 107 -260 123 -130 305 -168 512 -106 69 20 81
21 124 9 25 -7 74 -31 107 -52 71 -46 91 -45 137 7 44 50 40 75 -24 157 -31
39 -52 75 -48 79 4 4 48 12 97 17 100 11 110 18 121 84 10 56 -14 84 -94 114
-111 42 -112 50 -10 124 79 57 86 81 46 141 l-23 34 -105 0 -104 0 4 25 c1 13
16 50 32 82 39 77 37 92 -12 128 -66 47 -74 47 -137 -3 -73 -57 -99 -70 -107
-57 -4 6 -10 50 -13 98 -6 79 -9 88 -32 99 -34 17 -124 17 -139 -1 -6 -7 -20
-38 -30 -68 -11 -31 -26 -68 -33 -83 l-15 -28 -22 24 c-12 13 -38 50 -58 83
l-36 58 -41 -6 c-46 -8 -94 -33 -109 -57 -8 -12 -4 -39 12 -97 34 -117 23
-124 -101 -66 -74 35 -78 36 -103 20 -14 -9 -37 -35 -52 -57 l-26 -40 42 -43
42 -43 -92 -6 c-51 -4 -180 -7 -288 -7 -251 0 -248 1 -314 -130 -56 -112 -118
-299 -148 -448 -31 -153 -38 -445 -14 -580 35 -193 1 -328 -152 -601 -165
-295 -185 -338 -191 -406 -4 -60 -4 -63 32 -98 45 -46 115 -67 218 -67 73 0
79 -1 95 -27 26 -39 20 -102 -16 -180 -31 -65 -37 -98 -23 -120 11 -18 59 -33
104 -33 l41 0 -46 -49 c-28 -29 -48 -62 -52 -82 -13 -70 38 -140 118 -164 81
-24 79 -21 71 -171 -7 -132 -6 -134 21 -189 45 -92 142 -150 303 -181 112 -21
342 -18 463 6 102 21 265 75 275 91 12 20 24 7 24 -25 0 -52 26 -114 81 -193
27 -40 59 -94 71 -119 52 -119 88 -310 88 -477 0 -117 18 -161 82 -205 139
-93 368 -137 778 -148 254 -7 408 2 601 36 288 50 553 164 624 268 40 59 34
88 -51 230 -144 243 -362 702 -415 877 -6 22 -15 45 -19 50 -5 6 -10 21 -13
35 l-4 25 -2 -27 c-4 -87 262 -670 445 -975 41 -68 74 -132 74 -143 0 -52 -81
-130 -190 -184 -281 -140 -664 -200 -1121 -176 -404 21 -630 73 -726 169 -44
44 -51 74 -56 241 -8 242 -52 390 -162 545 -45 63 -75 137 -75 183 0 20 13 38
50 70 60 52 103 120 98 159 -9 80 -128 -42 -153 -156 -6 -30 -15 -37 -82 -68
-41 -19 -125 -46 -187 -61 -98 -23 -132 -26 -286 -26 -146 1 -188 4 -252 22
-155 42 -236 104 -264 201 -14 48 -15 68 -4 159 11 97 11 106 -6 129 -11 14
-43 33 -73 43 -74 25 -103 56 -109 119 -5 51 -4 52 49 105 46 45 61 54 102 59
61 8 87 23 87 47 0 30 -44 25 -98 -11 -42 -29 -51 -31 -103 -26 -107 12 -112
22 -64 137 39 96 43 142 16 185 l-18 30 31 26 c31 27 31 27 12 48 -26 28 -113
53 -173 49 -70 -4 -66 -32 9 -72 32 -17 58 -34 58 -38 0 -13 -72 -9 -133 7
-71 18 -103 39 -123 78 -31 59 -6 131 130 366 198 343 248 501 211 671 -36
165 -30 419 15 641 41 200 152 480 205 515 24 15 58 17 333 18 l306 1 10 -28
c15 -42 -3 -52 -102 -56 -48 -1 -92 -7 -98 -12 -20 -16 -38 -97 -27 -121 6
-13 40 -34 94 -57 109 -47 110 -59 12 -124 -83 -54 -89 -71 -51 -138 27 -49
48 -55 148 -39 116 18 124 5 60 -96 -22 -35 -40 -72 -40 -83 0 -26 51 -78 83
-87 43 -10 73 3 132 56 30 28 60 50 65 50 20 0 32 -55 25 -116 -5 -51 -3 -64
13 -84 17 -21 29 -24 82 -25 75 0 88 12 119 115 13 43 27 70 35 70 17 0 51
-40 88 -104 16 -26 35 -49 43 -52 21 -8 116 27 129 48 7 12 5 38 -8 93 -23 97
-14 110 44 70 23 -16 50 -40 61 -53 18 -24 18 -26 2 -44 -16 -18 -16 -22 5
-79 12 -34 19 -65 16 -70 -9 -15 -46 -10 -93 11 -56 26 -58 26 -81 -12 -29
-48 -25 -67 27 -120 26 -26 44 -51 40 -54 -4 -4 -35 -11 -69 -16 -34 -4 -66
-14 -70 -21 -10 -15 -10 -88 0 -103 4 -7 33 -17 64 -24 32 -6 60 -16 63 -21 4
-5 -17 -31 -46 -57 l-52 -48 21 -47 c24 -53 39 -58 112 -32 23 8 46 15 51 15
13 0 11 -32 -6 -80 -20 -56 -14 -71 36 -99 l41 -23 48 47 c26 26 53 45 58 41
6 -3 16 -30 22 -58 17 -70 25 -78 76 -78 49 0 51 2 73 88 7 23 17 42 24 42 7
0 32 -20 56 -45 48 -50 50 -51 91 -30 44 23 49 40 32 106 -9 32 -13 61 -10 65
4 3 28 -1 54 -10 71 -24 91 -21 114 17 27 44 25 61 -14 105 -19 20 -36 46 -38
57 -3 17 4 21 56 26 32 4 62 13 67 20 13 20 11 97 -2 105 -7 4 -37 12 -68 18
-70 14 -76 33 -21 71 50 34 60 67 33 103 -26 35 -52 38 -103 12 -23 -12 -44
-19 -47 -16 -3 2 18 32 46 65 28 34 65 88 83 121 18 33 35 60 38 60 3 0 12
-15 20 -33 13 -27 20 -32 48 -30 53 2 64 18 56 80 -7 61 0 66 50 28 40 -30 55
-31 90 -4 33 26 33 53 1 91 -40 48 -34 61 24 53 43 -6 52 -4 68 14 17 20 27
21 210 21 l193 0 0 -30 c0 -19 9 -40 25 -55 20 -21 34 -25 84 -25 77 0 81 -7
81 -152 0 -231 -52 -421 -182 -674 -139 -269 -175 -346 -207 -441 -70 -206
-99 -445 -81 -672 14 -174 68 -451 89 -451 5 0 -2 44 -15 98 -52 211 -58 267
-58 492 0 184 3 230 23 320 44 205 83 303 244 610 41 80 90 181 107 224 67
171 109 416 95 562 -8 90 -23 104 -106 104 -62 0 -73 8 -84 58 l-7 32 61 0
c105 0 120 34 77 182 -106 366 -404 754 -761 990 -170 113 -367 195 -573 238
-112 24 -392 35 -509 20z m328 -10 c332 -32 619 -150 884 -360 71 -57 233
-220 303 -305 135 -165 259 -394 313 -578 40 -137 35 -157 -40 -157 -27 0 -56
-3 -65 -6 -11 -4 -16 4 -21 33 -25 153 -115 370 -215 519 -248 370 -594 612
-1000 700 -132 29 -447 27 -593 -4 -153 -32 -303 -83 -447 -153 -194 -93 -306
-173 -453 -321 -109 -110 -133 -129 -167 -134 -52 -8 -90 2 -90 24 0 27 118
169 217 262 161 151 437 311 669 388 173 58 379 95 560 101 23 0 88 -4 145 -9z
m-413 -451 c34 -12 42 -31 42 -109 1 -118 19 -125 121 -49 78 57 91 58 149 10
l34 -29 -37 -79 c-20 -43 -37 -87 -37 -96 0 -28 41 -37 120 -26 40 6 78 8 86
5 13 -5 54 -77 54 -95 0 -6 -31 -34 -69 -61 -108 -78 -104 -106 20 -151 32
-12 64 -28 70 -35 13 -16 7 -100 -8 -115 -5 -5 -47 -13 -95 -18 -122 -12 -129
-20 -78 -87 84 -110 84 -110 64 -145 -11 -18 -31 -41 -46 -52 l-27 -20 -35 27
c-54 41 -137 76 -180 76 -22 0 -74 -9 -115 -21 -61 -17 -94 -20 -175 -17 -130
6 -196 31 -274 103 -124 114 -164 293 -103 455 34 90 56 120 90 120 39 0 59
-24 39 -48 -25 -28 -54 -93 -68 -150 -34 -146 70 -337 213 -391 102 -38 251
-25 361 31 61 31 141 113 167 171 19 41 24 69 24 137 -1 249 -169 420 -414
420 -134 0 -237 -37 -321 -116 -47 -44 -47 -44 -121 -44 l-75 0 -42 43 c-23
23 -42 47 -42 53 0 17 61 84 77 84 8 0 44 -14 79 -31 82 -39 127 -37 132 4 2
16 -4 52 -12 80 -9 29 -17 60 -18 71 -4 25 40 56 89 63 l40 5 49 -71 c75 -109
95 -106 135 18 12 36 28 72 37 79 19 15 59 16 100 1z m-16 -260 c72 -15 161
-64 204 -112 20 -22 50 -69 68 -106 29 -62 31 -73 31 -176 0 -102 -2 -113 -27
-156 -125 -212 -468 -266 -613 -96 -20 23 -48 66 -63 97 -23 47 -27 68 -27
140 0 87 12 126 62 203 23 35 9 60 -38 67 l-33 5 49 43 c97 82 252 119 387 91z
m976 -270 c25 -61 46 -62 79 -4 12 22 24 44 26 49 1 5 18 5 36 1 33 -7 33 -8
27 -52 -6 -46 6 -83 27 -83 7 0 29 11 49 25 43 29 55 31 80 9 17 -16 17 -19
-9 -64 -37 -65 -28 -84 37 -78 54 5 70 -4 70 -39 0 -16 -10 -29 -31 -41 -17
-9 -41 -25 -53 -34 -20 -16 -20 -17 -3 -35 10 -10 32 -23 50 -29 21 -7 33 -18
35 -32 3 -21 0 -22 -98 -22 -101 0 -101 0 -93 23 4 12 8 49 8 83 0 81 -34 135
-108 170 -66 30 -121 31 -177 1 -98 -51 -133 -143 -90 -232 50 -102 155 -134
261 -79 51 27 75 26 46 -3 -9 -9 -37 -28 -64 -42 -55 -30 -86 -72 -110 -147
-17 -57 -33 -66 -74 -44 -15 9 -19 22 -19 65 0 65 -13 70 -73 29 -37 -25 -39
-25 -58 -8 -24 22 -24 35 1 76 37 61 27 74 -65 80 -35 3 -40 6 -43 29 -3 22 4
31 43 53 56 33 56 52 -3 84 -69 38 -51 89 33 94 61 4 69 23 30 73 -21 28 -24
39 -15 54 17 33 46 34 96 5 56 -33 67 -23 58 48 -5 44 -4 49 18 57 43 18 53
12 76 -40z m140 -176 c52 -30 84 -88 84 -152 0 -72 -16 -101 -53 -101 -17 0
-44 -9 -60 -21 -90 -64 -215 -11 -247 104 -15 53 2 104 48 148 64 61 146 69
228 22z m-501 -469 c14 -4 24 -17 28 -38 27 -130 41 -139 106 -65 40 46 49 51
73 45 14 -3 32 -18 38 -31 9 -21 6 -32 -23 -80 -18 -30 -48 -69 -66 -87 l-32
-31 -53 23 c-45 19 -64 22 -130 17 -68 -4 -78 -3 -83 13 -3 10 -30 55 -60 100
-30 45 -55 83 -55 86 0 2 8 4 19 4 10 0 35 -20 56 -46 49 -59 75 -57 93 6 28
94 33 99 89 84z m-127 -304 c9 -17 21 -20 76 -20 118 0 189 -64 200 -182 17
-174 -209 -278 -341 -157 -68 63 -95 173 -61 254 15 35 92 125 107 125 5 0 13
-9 19 -20z m-2019 -1156 c84 -25 100 -53 42 -75 -20 -7 -37 -3 -94 27 -38 20
-69 43 -69 50 0 19 53 18 121 -2z m299 -414 c0 -13 -43 -30 -73 -30 -18 1 -16
4 13 20 39 22 60 25 60 10z m1180 -570 c0 -26 -52 -110 -86 -140 -48 -42 -54
-26 -19 45 32 67 105 132 105 95z"/>
</g>
</svg>
