<?xml version="1.0" standalone="no"?>
<!DOCTYPE svg PUBLIC "-//W3C//DTD SVG 20010904//EN"
 "http://www.w3.org/TR/2001/REC-SVG-20010904/DTD/svg10.dtd">
<svg version="1.0" xmlns="http://www.w3.org/2000/svg"
 width="821.000000pt" height="540.000000pt" viewBox="0 0 821.000000 540.000000"
 preserveAspectRatio="xMidYMid meet">

<g transform="translate(0.000000,540.000000) scale(0.100000,-0.100000)"
fill="#000000" stroke="none">
<path d="M5747 4639 c-131 -31 -239 -134 -300 -289 -43 -108 -50 -174 -48
-445 1 -175 -3 -301 -15 -421 -16 -161 -16 -173 0 -223 9 -29 16 -54 14 -55
-178 -84 -253 -137 -288 -206 -19 -37 -51 -150 -67 -238 l-8 -44 -477 2 c-474
1 -477 1 -499 -21 -13 -13 -19 -28 -15 -42 3 -12 17 -78 31 -147 15 -69 62
-264 105 -435 43 -170 77 -312 75 -314 -2 -2 -16 6 -32 17 -15 11 -57 34 -93
53 -58 30 -74 33 -150 33 -97 1 -138 -15 -203 -81 -69 -68 -92 -118 -92 -198
0 -58 5 -79 28 -121 67 -120 257 -329 407 -445 77 -60 246 -173 273 -182 7 -2
2 -35 -16 -93 -50 -162 -31 -287 53 -358 l32 -26 -2096 0 c-1856 0 -2096 -2
-2096 -15 0 -13 270 -15 2373 -15 1304 0 2429 -3 2500 -7 154 -7 157 -3 63 84
-73 67 -159 112 -260 137 -123 30 -171 60 -297 183 -64 62 -120 113 -126 113
-6 0 -23 -28 -39 -62 -27 -58 -29 -72 -29 -178 0 -110 1 -117 32 -172 38 -71
23 -77 -42 -17 -81 75 -94 188 -39 344 13 39 24 75 24 82 0 6 -37 32 -82 58
-235 134 -550 436 -621 595 -71 158 66 353 248 352 74 0 138 -23 234 -86 40
-25 76 -44 81 -41 4 3 -14 89 -41 192 -120 455 -186 760 -169 777 23 23 798
16 1405 -14 246 -13 279 -19 300 -61 9 -16 52 -186 96 -377 44 -191 91 -395
104 -453 14 -58 25 -113 25 -122 0 -34 9 -34 300 19 74 14 137 28 141 32 3 4
12 50 18 102 14 110 71 360 100 440 27 75 26 47 -4 -90 -31 -146 -62 -427 -49
-440 6 -6 40 0 94 16 107 33 155 57 176 89 16 24 15 29 -15 105 -38 97 -87
267 -131 455 -18 77 -41 156 -51 175 -10 19 -52 73 -93 120 -116 130 -176 272
-175 415 0 55 3 80 24 170 6 30 4 32 -66 70 -89 49 -157 108 -177 155 -12 27
-18 92 -23 275 -10 339 -40 496 -113 596 -106 145 -332 107 -420 -70 -57 -114
-67 -360 -20 -498 53 -157 169 -234 299 -200 22 6 27 5 19 -3 -14 -14 -109
-40 -146 -40 l-28 0 0 -75 c0 -74 -21 -150 -64 -230 -25 -46 -22 -183 5 -245
28 -66 84 -95 167 -87 l57 5 -40 -13 c-59 -20 -105 -18 -155 8 -50 25 -69 53
-116 171 -18 44 -37 82 -42 84 -17 5 -100 -114 -143 -203 -21 -44 -48 -119
-60 -167 l-22 -88 -93 0 c-51 0 -95 3 -97 8 -8 14 34 197 57 248 33 73 95 127
205 180 185 89 204 99 244 135 25 22 38 40 33 48 -5 8 -17 3 -41 -18 -19 -16
-55 -42 -80 -57 -43 -25 -48 -26 -63 -11 -23 23 -27 124 -11 249 8 63 14 219
14 403 1 276 3 306 23 380 27 95 85 197 143 250 48 43 133 85 189 92 l39 5
-16 -52 c-11 -39 -12 -55 -4 -63 9 -9 14 -8 21 3 29 51 60 82 99 101 42 21 45
21 96 5 158 -50 249 -258 306 -700 39 -310 86 -489 161 -617 25 -43 33 -48
120 -79 74 -27 101 -42 139 -80 76 -77 106 -151 184 -460 107 -425 150 -653
161 -856 6 -96 4 -120 -14 -180 -31 -101 -47 -112 -222 -159 -129 -34 -138
-33 -185 17 -22 23 -68 55 -103 71 -56 26 -71 29 -140 26 -61 -3 -89 -10 -132
-33 -67 -35 -152 -90 -168 -109 -22 -27 20 -14 71 21 26 18 77 47 114 64 120
57 242 36 341 -59 37 -35 49 -41 90 -41 94 -2 277 53 315 95 34 38 67 157 67
240 0 136 -73 527 -167 898 -113 448 -142 494 -358 575 l-70 25 -42 85 c-71
140 -92 233 -148 637 -30 215 -59 325 -120 450 -89 181 -231 251 -341 168
l-34 -26 6 31 c6 29 5 30 -27 29 -19 -1 -51 -5 -72 -10z m91 -215 c45 -9 107
-67 136 -127 49 -100 67 -217 75 -503 7 -258 7 -261 35 -318 31 -63 86 -113
180 -161 51 -27 56 -33 51 -55 -3 -14 -8 -72 -11 -130 -10 -184 43 -325 178
-476 122 -136 135 -187 84 -333 -49 -141 -79 -260 -112 -444 l-28 -155 -75
-12 c-42 -6 -122 -20 -179 -31 -57 -10 -109 -19 -117 -19 -9 0 -26 54 -54 173
-101 428 -171 729 -171 739 0 29 -36 82 -66 94 -19 8 -118 18 -254 26 l-222
12 6 43 c14 106 87 270 159 357 l24 30 22 -60 c32 -88 52 -122 93 -159 66 -60
173 -60 294 0 100 49 191 148 262 282 28 55 52 106 52 112 0 29 -22 3 -76 -86
-106 -179 -227 -273 -359 -280 -112 -7 -145 35 -145 185 0 77 4 100 24 140 34
68 47 113 54 190 l7 67 46 6 c50 7 115 37 167 77 32 25 58 60 49 68 -2 2 -34
-10 -70 -26 -90 -43 -158 -48 -217 -18 -97 50 -149 165 -157 348 -9 199 35
332 131 398 69 46 119 59 184 46z m836 -2277 c25 -86 55 -180 66 -209 26 -70
26 -104 -2 -122 -32 -21 -116 -52 -162 -60 l-39 -7 7 93 c9 120 71 476 82 465
2 -1 23 -73 48 -160z m-2038 -1446 c123 -119 164 -144 285 -177 116 -31 163
-52 231 -102 98 -72 98 -72 -49 -72 -71 0 -219 3 -328 7 -187 6 -199 7 -225
30 -59 49 -86 155 -70 271 10 71 33 142 46 142 4 0 53 -45 110 -99z"/>
<path d="M4340 1458 c0 -94 -80 -82 845 -128 432 -22 728 -40 733 -44 2 -2
-27 -18 -64 -35 -131 -61 -370 -206 -505 -305 l-35 -27 -85 47 c-135 75 -224
130 -382 238 -185 127 -194 132 -203 123 -12 -11 110 -130 211 -206 193 -145
591 -391 633 -391 9 0 12 -6 7 -17 -45 -116 -95 -312 -95 -376 0 -44 15 -57
66 -57 82 0 270 -30 407 -65 192 -49 267 -46 321 13 14 16 18 36 17 85 -1 56
-31 256 -47 314 -5 19 3 26 63 57 174 87 405 276 480 394 18 28 36 52 38 52 8
0 -6 -91 -27 -179 -36 -151 -113 -315 -200 -429 -44 -57 -153 -162 -169 -162
-5 0 -9 -7 -9 -15 0 -13 96 -15 800 -15 704 0 800 2 800 15 0 13 -92 15 -766
15 l-766 0 60 65 c173 185 280 435 307 718 8 82 -2 170 -19 164 -6 -2 -14 -32
-17 -68 -3 -35 -13 -78 -21 -94 -68 -129 -275 -314 -480 -429 -75 -41 -93 -44
-108 -15 -16 29 -70 59 -105 59 -18 0 -53 -15 -85 -35 -77 -50 -148 -69 -258
-69 -110 0 -115 -13 -16 -40 121 -32 337 -23 446 19 26 10 34 -17 59 -188 26
-179 23 -202 -31 -230 -44 -23 -117 -17 -245 18 -104 29 -278 61 -383 70 -54
5 -75 11 -82 25 -12 22 29 205 71 318 17 46 29 85 28 87 -2 1 -42 22 -89 45
-158 79 -562 339 -602 387 -16 20 -10 17 117 -67 80 -52 199 -123 321 -189
l41 -23 98 71 c128 93 299 194 455 269 133 64 198 110 186 130 -5 9 -16 5 -38
-13 -35 -29 -41 -30 -323 -15 -426 22 -574 30 -880 45 -176 8 -348 18 -382 21
-62 5 -62 6 -69 41 -4 19 -2 39 3 44 8 8 512 -10 730 -26 44 -3 74 -1 78 5 8
13 58 13 71 0 14 -14 274 -24 274 -11 0 6 -15 12 -32 15 -29 5 -516 26 -980
43 l-168 6 0 -55z m1754 -761 l29 -31 -30 -13 c-47 -19 -149 -33 -240 -33 -86
0 -112 13 -45 23 40 5 92 27 171 72 52 30 74 26 115 -18z"/>
<path d="M5550 1445 c0 -14 47 -12 61 2 8 8 1 11 -25 10 -20 -1 -36 -6 -36
-12z"/>
<path d="M5654 1445 c10 -8 22 -12 26 -10 4 3 29 1 54 -4 34 -6 46 -5 46 4 0
11 -71 25 -125 25 -20 -1 -20 -1 -1 -15z"/>
<path d="M5836 1435 c4 -8 12 -15 20 -15 8 0 14 7 14 15 0 8 -9 15 -20 15 -13
0 -18 -5 -14 -15z"/>
<path d="M5920 1433 c0 -17 15 -16 30 1 9 12 8 15 -9 13 -12 -1 -21 -7 -21
-14z"/>
<path d="M6022 1429 c2 -6 8 -10 13 -10 5 0 11 4 13 10 2 6 -4 11 -13 11 -9 0
-15 -5 -13 -11z"/>
<path d="M6070 1400 c0 -23 10 -26 28 -8 18 18 15 28 -8 28 -13 0 -20 -7 -20
-20z"/>
</g>
</svg>
